<?xml version="1.0" encoding="UTF-8"?>
<svg version="1.1" xmlns="http://www.w3.org/2000/svg" width="512" height="512">
<path d="M0 0 C0.83646238 -0.0034177 1.67292476 -0.0068354 2.53473449 -0.01035666 C5.34184231 -0.0169533 8.14799714 0.00506971 10.95501709 0.0269165 C12.96543353 0.0280446 14.97585161 0.02741187 16.98626709 0.02514648 C22.44880976 0.02399692 27.91100244 0.04754558 33.37346363 0.07544231 C39.08029731 0.10041556 44.78713866 0.10279475 50.49401855 0.10754395 C61.30291611 0.1199857 72.11165219 0.15282362 82.92047858 0.1929419 C95.22503031 0.23762223 107.52958966 0.25963726 119.83420229 0.27972364 C145.14767545 0.32155513 170.4610052 0.39193058 195.77435303 0.48101807 C195.88392334 1.24027588 195.99349365 1.99953369 196.10638428 2.78179932 C196.26493896 3.7756665 196.42349365 4.76953369 196.58685303 5.79351807 C196.73767334 6.77965088 196.88849365 7.76578369 197.04388428 8.78179932 C197.8177568 11.64140312 198.4764805 12.68447305 200.77435303 14.48101807 C202.57625917 15.45817415 202.57625917 15.45817415 204.46185303 16.16851807 C205.55497803 16.60164307 206.64810303 17.03476807 207.77435303 17.48101807 C207.25872803 18.32664307 206.74310303 19.17226807 206.21185303 20.04351807 C204.45767738 24.23828592 204.68379539 26.09593326 205.77435303 30.48101807 C207.42825401 32.71709805 208.91464286 34.46602947 210.87591553 36.37945557 C211.39060394 36.89988434 211.90529236 37.42031311 212.43557739 37.95651245 C213.52274889 39.04774876 214.61746231 40.13151753 215.71917725 41.20806885 C217.39493874 42.85168844 219.03625334 44.52488668 220.67669678 46.20367432 C221.74118469 47.26419706 222.80753252 48.32285688 223.87591553 49.37945557 C224.36162018 49.8773056 224.84732483 50.37515564 225.3477478 50.88809204 C228.96998267 54.36662812 231.78486066 55.34486819 236.77435303 55.48101807 C240.14314074 54.17382544 240.14314074 54.17382544 242.77435303 52.48101807 C243.00509521 53.10750244 243.2358374 53.73398682 243.47357178 54.37945557 C245.33173192 59.37806688 245.33173192 59.37806688 249.02435303 62.98101807 C252.58404246 63.62823433 256.18424316 64.03225433 259.77435303 64.48101807 C259.77435303 96.16101807 259.77435303 127.84101807 259.77435303 160.48101807 C247.73386475 160.55449463 247.73386475 160.55449463 235.45013428 160.62945557 C230.36874136 160.66483568 225.28736567 160.70079217 220.20599365 160.73883057 C212.13839137 160.79916835 204.07081553 160.85764891 196.00311279 160.90289307 C189.49970531 160.93937487 182.99641822 160.98609018 176.49312401 161.03908157 C174.01042165 161.05763217 171.52769112 161.07273765 169.04494667 161.08436203 C165.57090381 161.10121276 162.09716243 161.13024574 158.62322998 161.16217041 C157.59392365 161.1643306 156.56461731 161.16649078 155.50411987 161.16871643 C154.5548613 161.17987991 153.60560272 161.1910434 152.62757874 161.20254517 C151.80626119 161.20807592 150.98494364 161.21360668 150.13873768 161.21930504 C147.28847322 161.53479996 145.28732382 162.07921149 142.77435303 163.48101807 C142.11435303 165.13101807 141.45435303 166.78101807 140.77435303 168.48101807 C129.55435303 168.48101807 118.33435303 168.48101807 106.77435303 168.48101807 C105.78435303 166.00601807 105.78435303 166.00601807 104.77435303 163.48101807 C101.48851198 161.64808249 98.64392333 161.2276145 94.92112732 161.20254517 C93.97186874 161.19138168 93.02261017 161.1802182 92.04458618 161.16871643 C91.01527985 161.16655624 89.98597351 161.16439606 88.92547607 161.16217041 C87.83234604 161.15212479 86.739216 161.14207916 85.61296082 161.13172913 C82.00400309 161.10086724 78.39511966 161.08385337 74.78607178 161.06695557 C72.28214375 161.04824637 69.77822205 161.02867314 67.27430725 161.00827026 C61.36003967 160.96216433 55.44575773 160.92476542 49.53140718 160.89159739 C42.13510867 160.8495839 34.73892223 160.79402914 27.3427124 160.73883057 C14.15332024 160.6420334 0.96387918 160.55726426 -12.22564697 160.48101807 C-12.3190397 140.21026898 -12.38960133 119.93956348 -12.43289566 99.66864395 C-12.45353124 90.25674503 -12.48167082 80.84497969 -12.52740479 71.4331665 C-12.56724212 63.23094779 -12.59307254 55.02882582 -12.60200095 46.82651305 C-12.60722099 42.48238767 -12.61951044 38.13853904 -12.6485672 33.79450226 C-12.67568741 29.70692292 -12.68409894 25.61973474 -12.6780777 21.53207397 C-12.67917947 20.03082912 -12.68715383 18.52957138 -12.70246887 17.02840424 C-12.72233953 14.98049855 -12.71520848 12.93238368 -12.70666504 10.88439941 C-12.71035221 9.73768894 -12.71403938 8.59097847 -12.71783829 7.4095192 C-12.22564697 4.48101807 -12.22564697 4.48101807 -10.70968628 2.11087036 C-7.21889445 -0.17954229 -4.03730157 -0.0601457 0 0 Z M83.77435303 72.48101807 C83.77435303 77.76101807 83.77435303 83.04101807 83.77435303 88.48101807 C89.05435303 88.48101807 94.33435303 88.48101807 99.77435303 88.48101807 C99.77435303 83.20101807 99.77435303 77.92101807 99.77435303 72.48101807 C94.49435303 72.48101807 89.21435303 72.48101807 83.77435303 72.48101807 Z M115.77435303 72.48101807 C115.77435303 77.76101807 115.77435303 83.04101807 115.77435303 88.48101807 C121.05435303 88.48101807 126.33435303 88.48101807 131.77435303 88.48101807 C131.77435303 83.20101807 131.77435303 77.92101807 131.77435303 72.48101807 C126.49435303 72.48101807 121.21435303 72.48101807 115.77435303 72.48101807 Z M147.77435303 72.48101807 C147.77435303 77.76101807 147.77435303 83.04101807 147.77435303 88.48101807 C153.05435303 88.48101807 158.33435303 88.48101807 163.77435303 88.48101807 C163.77435303 83.20101807 163.77435303 77.92101807 163.77435303 72.48101807 C158.49435303 72.48101807 153.21435303 72.48101807 147.77435303 72.48101807 Z " fill="#000000" transform="translate(60.22564697265625,287.51898193359375)"/>
<path d="M0 0 C4.55235783 3.84421328 8.80989763 7.97283528 12.71923828 12.47167969 C15.08973563 14.85281609 15.08973563 14.85281609 18.17626953 15.22167969 C22.05277285 14.48961506 24.53112486 12.69439041 27.57080078 10.32714844 C38.38964763 2.49689972 48.0962499 1.34391833 61.25830078 2.63964844 C72.02057071 4.78444244 80.41706797 11.42853567 86.75048828 20.22167969 C94.15975828 32.10338468 93.52859422 46.36433148 91.18408203 59.79199219 C91.08537391 61.74934908 91.08537391 61.74934908 92.55126953 63.33105469 C95.88588548 65.88733922 99.06298663 65.77238312 103.10595703 65.81542969 C104.26933594 65.83927734 105.43271484 65.863125 106.63134766 65.88769531 C109.06346897 65.9301834 111.49581046 65.96169102 113.92822266 65.98144531 C123.8640566 66.21632209 132.29114489 67.99166793 139.72705078 74.93652344 C147.12071369 83.16008729 148.84020145 91.87410479 148.57080078 102.65136719 C148.09647443 111.03706174 144.48360555 118.04258544 138.25830078 123.63964844 C131.88794285 128.4301576 125.69306061 130.77634155 117.68408203 131.21582031 C116.3941333 131.28667847 115.10418457 131.35753662 113.77514648 131.43054199 C108.62109574 131.66187043 103.46487859 131.82375827 98.30708313 131.94377899 C94.41228501 132.03550849 90.52979546 132.1685618 86.64111328 132.40917969 C58.96475546 134.08015498 58.96475546 134.08015498 49.41064453 125.67089844 C44.57471028 121.15822107 40.41446511 116.08598223 36.51708984 110.74890137 C33.50019216 107.93172805 31.32568629 107.76535035 27.25830078 107.63964844 C23.88951307 108.94684107 23.88951307 108.94684107 21.25830078 110.63964844 C21.02755859 110.01316406 20.79681641 109.38667969 20.55908203 108.74121094 C20.23294922 107.92394531 19.90681641 107.10667969 19.57080078 106.26464844 C19.25755859 105.45253906 18.94431641 104.64042969 18.62158203 103.80371094 C16.81242798 100.93187327 15.48939797 100.63125439 12.25830078 99.63964844 C8.75916196 99.33307056 8.75916196 99.33307056 4.94580078 99.37402344 C4.25446045 99.37210999 3.56312012 99.37019653 2.85083008 99.3682251 C1.39517857 99.36686951 -0.06048529 99.37052204 -1.51611328 99.37890625 C-3.73481594 99.38961521 -5.95270902 99.37899021 -8.17138672 99.36621094 C-9.59065933 99.36753264 -11.00993143 99.37009527 -12.42919922 99.37402344 C-14.353125 99.37740723 -14.353125 99.37740723 -16.31591797 99.38085938 C-19.60991612 99.62969333 -21.83215882 100.11027892 -24.74169922 101.63964844 C-26.18589322 103.77794754 -26.18589322 103.77794754 -27.05419922 106.26464844 C-27.38033203 107.08191406 -27.70646484 107.89917969 -28.04248047 108.74121094 C-28.27322266 109.36769531 -28.50396484 109.99417969 -28.74169922 110.63964844 C-29.58732422 110.12402344 -30.43294922 109.60839844 -31.30419922 109.07714844 C-34.43816222 107.76658209 -36.42119694 107.11192948 -39.77355957 107.68170166 C-42.58532842 109.05026558 -43.8598963 111.00350315 -45.73486328 113.49267578 C-52.47655974 122.35087537 -59.19436289 130.43813795 -70.7206192 132.2448616 C-81.64493947 133.41722277 -92.65843823 132.90124345 -103.60864258 132.38342285 C-107.47314409 132.22421547 -111.33635756 132.16393252 -115.20353317 132.10804176 C-119.85773994 132.0390375 -124.51054889 131.92807844 -129.16357422 131.80371094 C-130.0337191 131.78103779 -130.90386398 131.75836464 -131.80037689 131.73500443 C-143.52516272 131.37913152 -154.18975957 130.76775716 -163.21044922 122.34277344 C-170.60411213 114.11920959 -172.32359988 105.40519209 -172.05419922 94.62792969 C-171.57987287 86.24223513 -167.96700399 79.23671144 -161.74169922 73.63964844 C-152.43481508 66.64087157 -143.73124351 66.3036805 -132.41943359 66.07324219 C-131.37980469 66.04359375 -130.34017578 66.01394531 -129.26904297 65.98339844 C-128.32794678 65.96470703 -127.38685059 65.94601563 -126.41723633 65.92675781 C-123.51558797 65.61538465 -121.35048498 64.93762417 -118.74169922 63.63964844 C-116.35861218 59.6209644 -116.26827527 55.13954097 -115.86669922 50.57714844 C-113.66507322 29.73182404 -103.60244634 13.83395127 -87.99169922 0.32714844 C-63.14912888 -18.6005242 -24.86298426 -19.41919656 0 0 Z " fill="#000000" transform="translate(331.74169921875,109.3603515625)"/>
<path d="M0 0 C4.55235783 3.84421328 8.80989763 7.97283528 12.71923828 12.47167969 C15.08973563 14.85281609 15.08973563 14.85281609 18.17626953 15.22167969 C22.05277285 14.48961506 24.53112486 12.69439041 27.57080078 10.32714844 C38.38964763 2.49689972 48.0962499 1.34391833 61.25830078 2.63964844 C72.05703737 4.79170982 80.29741809 11.44003136 86.75048828 20.15917969 C89.47244331 24.63700727 92.25830078 30.30036257 92.25830078 35.63964844 C90.96279297 35.65382812 89.66728516 35.66800781 88.33251953 35.68261719 C60.7390628 36.28952674 38.4709344 44.75094956 19.07080078 64.82714844 C6.51052479 79.10200179 0.90316751 96.31350285 -2.74169922 114.63964844 C-3.90185547 114.73761719 -5.06201172 114.83558594 -6.25732422 114.93652344 C-20.00742769 116.20383448 -34.47584079 118.08891146 -44.10999966 129.22064304 C-46.17224214 131.01406953 -47.20290037 131.01840454 -49.90748596 131.02732849 C-50.75540207 131.03723312 -51.60331818 131.04713776 -52.47692871 131.05734253 C-53.40420776 131.05284088 -54.33148682 131.04833923 -55.28686523 131.04370117 C-56.75572426 131.05399605 -56.75572426 131.05399605 -58.2542572 131.0644989 C-61.50151966 131.08284376 -64.74830213 131.07891605 -67.99560547 131.07324219 C-70.25422829 131.07780258 -72.51284971 131.08310772 -74.77146912 131.08912659 C-79.5136375 131.09807449 -84.25563767 131.09561809 -88.99780273 131.08569336 C-95.0582149 131.07424275 -101.11804103 131.0943469 -107.1783762 131.1236105 C-111.84801394 131.14201782 -116.51751272 131.14167027 -121.18717766 131.13597298 C-123.42016353 131.1358201 -125.65315902 131.14183679 -127.88611031 131.15426445 C-131.02136231 131.16924552 -134.15555129 131.15844209 -137.29077148 131.14135742 C-138.66043564 131.15585937 -138.66043564 131.15585937 -140.05776978 131.1706543 C-148.85705181 131.07092185 -156.71128284 128.41274958 -163.21044922 122.34277344 C-170.60411213 114.11920959 -172.32359988 105.40519209 -172.05419922 94.62792969 C-171.57987287 86.24223513 -167.96700399 79.23671144 -161.74169922 73.63964844 C-152.43481508 66.64087157 -143.73124351 66.3036805 -132.41943359 66.07324219 C-131.37980469 66.04359375 -130.34017578 66.01394531 -129.26904297 65.98339844 C-128.32794678 65.96470703 -127.38685059 65.94601563 -126.41723633 65.92675781 C-123.51558797 65.61538465 -121.35048498 64.93762417 -118.74169922 63.63964844 C-116.35861218 59.6209644 -116.26827527 55.13954097 -115.86669922 50.57714844 C-113.66507322 29.73182404 -103.60244634 13.83395127 -87.99169922 0.32714844 C-63.14912888 -18.6005242 -24.86298426 -19.41919656 0 0 Z " fill="#000000" transform="translate(203.74169921875,45.3603515625)"/>
<path d="M0 0 C0.83265381 0.00523682 1.66530762 0.01047363 2.52319336 0.01586914 C3.42231445 0.0190918 4.32143555 0.02231445 5.24780273 0.02563477 C6.66609375 0.03820312 6.66609375 0.03820312 8.11303711 0.05102539 C9.06243164 0.05553711 10.01182617 0.06004883 10.98999023 0.06469727 C13.34356776 0.07652429 15.69702188 0.09300514 18.05053711 0.11352539 C18.24389648 0.71680664 18.43725586 1.32008789 18.63647461 1.94165039 C19.02706055 3.14047852 19.02706055 3.14047852 19.42553711 4.36352539 C19.68077148 5.15243164 19.93600586 5.94133789 20.19897461 6.75415039 C21.64044659 11.24421379 21.64044659 11.24421379 25.05053711 14.11352539 C30.35861669 14.87182247 33.0108653 13.15496896 37.12084961 10.10961914 C39.05053711 9.11352539 39.05053711 9.11352539 40.98266602 9.38110352 C43.29509125 10.20014433 44.36967919 11.08437862 46.06616211 12.83618164 C46.85893555 13.64345703 46.85893555 13.64345703 47.66772461 14.46704102 C48.20655273 15.03100586 48.74538086 15.5949707 49.30053711 16.17602539 C49.85483398 16.74385742 50.40913086 17.31168945 50.98022461 17.89672852 C52.34387925 19.29565008 53.69814128 20.70371653 55.05053711 22.11352539 C54.06590273 25.23010726 53.21377715 27.86238686 51.42553711 30.61352539 C49.72053906 33.71352185 49.59541042 35.62422077 50.05053711 39.11352539 C52.30713374 42.07347682 54.64520716 42.80190724 58.17553711 43.73852539 C62.96720378 45.03019206 62.96720378 45.03019206 64.05053711 46.11352539 C64.13723143 47.60224399 64.15757205 49.09497039 64.14819336 50.58618164 C64.14335937 51.93486328 64.14335937 51.93486328 64.13842773 53.31079102 C64.12585938 54.72908203 64.12585938 54.72908203 64.11303711 56.17602539 C64.10852539 57.12541992 64.10401367 58.07481445 64.09936523 59.05297852 C64.08753821 61.40655604 64.07105736 63.76001016 64.05053711 66.11352539 C63.44725586 66.30688477 62.84397461 66.50024414 62.22241211 66.69946289 C61.42319336 66.95985352 60.62397461 67.22024414 59.80053711 67.48852539 C59.01163086 67.74375977 58.22272461 67.99899414 57.40991211 68.26196289 C52.91984871 69.70343487 52.91984871 69.70343487 50.05053711 73.11352539 C49.25442499 78.55362487 51.24796359 81.58583516 54.15209961 85.96508789 C55.05053711 88.11352539 55.05053711 88.11352539 54.55053711 90.02758789 C52.4614192 92.93276749 49.9889 95.38474047 47.42553711 97.86352539 C46.90991211 98.37012695 46.39428711 98.87672852 45.86303711 99.39868164 C44.59670372 100.64156441 43.32422271 101.87817815 42.05053711 103.11352539 C38.93395524 102.12889101 36.30167564 101.27676543 33.55053711 99.48852539 C30.45054065 97.78352734 28.53984173 97.6583987 25.05053711 98.11352539 C22.09058568 100.37012202 21.36215526 102.70819544 20.42553711 106.23852539 C19.13387044 111.03019206 19.13387044 111.03019206 18.05053711 112.11352539 C16.56181851 112.20021971 15.06909211 112.22056033 13.57788086 112.21118164 C12.67875977 112.20795898 11.77963867 112.20473633 10.85327148 112.20141602 C9.43498047 112.18884766 9.43498047 112.18884766 7.98803711 112.17602539 C7.03864258 112.17151367 6.08924805 112.16700195 5.11108398 112.16235352 C2.75750646 112.15052649 0.40405234 112.13404564 -1.94946289 112.11352539 C-2.14282227 111.51024414 -2.33618164 110.90696289 -2.53540039 110.28540039 C-2.79579102 109.48618164 -3.05618164 108.68696289 -3.32446289 107.86352539 C-3.57969727 107.07461914 -3.83493164 106.28571289 -4.09790039 105.47290039 C-5.53937237 100.98283699 -5.53937237 100.98283699 -8.94946289 98.11352539 C-14.38956237 97.31741327 -17.42177266 99.31095187 -21.80102539 102.21508789 C-23.94946289 103.11352539 -23.94946289 103.11352539 -25.86352539 102.61352539 C-28.76870499 100.52440748 -31.22067797 98.05188828 -33.69946289 95.48852539 C-34.20606445 94.97290039 -34.71266602 94.45727539 -35.23461914 93.92602539 C-36.47750191 92.65969201 -37.71411565 91.38721099 -38.94946289 90.11352539 C-37.96482851 86.99694352 -37.11270293 84.36466392 -35.32446289 81.61352539 C-33.61946484 78.51352894 -33.4943362 76.60283001 -33.94946289 73.11352539 C-36.20605952 70.15357397 -38.54413294 69.42514354 -42.07446289 68.48852539 C-46.86612956 67.19685872 -46.86612956 67.19685872 -47.94946289 66.11352539 C-48.03615721 64.62480679 -48.05649783 63.13208039 -48.04711914 61.64086914 C-48.04389648 60.74174805 -48.04067383 59.84262695 -48.03735352 58.91625977 C-48.02897461 57.97073242 -48.0205957 57.02520508 -48.01196289 56.05102539 C-48.00745117 55.10163086 -48.00293945 54.15223633 -47.99829102 53.17407227 C-47.98646399 50.82049474 -47.96998314 48.46704062 -47.94946289 46.11352539 C-47.34618164 45.92016602 -46.74290039 45.72680664 -46.12133789 45.52758789 C-44.92250977 45.13700195 -44.92250977 45.13700195 -43.69946289 44.73852539 C-42.91055664 44.48329102 -42.12165039 44.22805664 -41.30883789 43.96508789 C-36.81877449 42.52361591 -36.81877449 42.52361591 -33.94946289 39.11352539 C-33.15335077 33.67342591 -35.14688937 30.64121562 -38.05102539 26.26196289 C-38.94946289 24.11352539 -38.94946289 24.11352539 -38.43383789 22.20336914 C-36.38873886 19.32408498 -34.04992847 16.80580569 -31.57446289 14.30102539 C-31.09235352 13.78604492 -30.61024414 13.27106445 -30.11352539 12.74047852 C-28.67602539 11.28149414 -28.67602539 11.28149414 -25.94946289 9.11352539 C-22.77236868 9.1830968 -21.36967365 10.46784104 -18.57446289 12.17602539 C-15.24243416 14.13520108 -12.8636008 14.73622915 -8.94946289 14.11352539 C-5.99689217 11.84401207 -5.26236124 9.52368069 -4.32446289 5.98852539 C-2.75338717 0.16034127 -2.75338717 0.16034127 0 0 Z M-16.32446289 35.42602539 C-17.23886054 36.62617231 -18.11494037 37.85652584 -18.94946289 39.11352539 C-19.36196289 39.73485352 -19.77446289 40.35618164 -20.19946289 40.99633789 C-24.03349879 47.99877845 -24.187761 56.35969608 -22.94946289 64.11352539 C-19.88062685 74.01444165 -13.89338903 80.65843675 -4.88696289 85.55102539 C2.9659553 88.68947539 12.58516766 88.368252 20.48803711 85.55102539 C28.87781616 81.56518351 34.38861116 75.61610882 38.05053711 67.11352539 C40.72418142 58.97262125 39.99719099 49.03466333 36.35913086 41.35571289 C31.11418909 32.36885744 23.71489758 27.20268171 13.62866211 24.45336914 C2.33558915 22.71135257 -8.6256105 27.1081698 -16.32446289 35.42602539 Z " fill="#000000" transform="translate(319.949462890625,223.886474609375)"/>
<path d="M0 0 C39.27 0 78.54 0 119 0 C119.99 2.475 119.99 2.475 121 5 C124.30253282 6.84604944 127.15154328 7.25158329 130.89453125 7.25878906 C132.31125122 7.26824554 132.31125122 7.26824554 133.7565918 7.27789307 C134.7650415 7.2738446 135.77349121 7.26979614 136.8125 7.265625 C138.38221558 7.26849518 138.38221558 7.26849518 139.98364258 7.27142334 C142.19254802 7.27278218 144.40146154 7.26910676 146.61035156 7.26074219 C149.98781301 7.25003862 153.36474256 7.26064787 156.7421875 7.2734375 C158.89062617 7.27211585 161.03906451 7.26955335 163.1875 7.265625 C164.70017456 7.27169769 164.70017456 7.27169769 166.2434082 7.27789307 C167.66012817 7.26843658 167.66012817 7.26843658 169.10546875 7.25878906 C170.34526489 7.25640228 170.34526489 7.25640228 171.61010742 7.25396729 C174.47695043 6.9493158 176.47505045 6.41139603 179 5 C179.66 3.35 180.32 1.7 181 0 C220.27 0 259.54 0 300 0 C298 12 298 12 294 16 C291.66114426 16.50139666 291.66114426 16.50139666 289.0211792 16.50336456 C287.50810621 16.51901105 287.50810621 16.51901105 285.96446609 16.53497362 C284.85825283 16.52605073 283.75203957 16.51712785 282.61230469 16.50793457 C280.84731691 16.51729451 280.84731691 16.51729451 279.04667282 16.52684355 C275.77957699 16.54005346 272.51307387 16.53527849 269.24599266 16.52289867 C265.72308543 16.51386167 262.20025936 16.52781115 258.67736816 16.53881836 C251.77565064 16.55662271 244.87410693 16.55275514 237.97238255 16.5411678 C232.36418288 16.53214125 226.75603199 16.53090609 221.14782715 16.53526306 C220.35021996 16.53587599 219.55261278 16.53648893 218.73083568 16.53712043 C217.11060872 16.53839931 215.49038178 16.53969616 213.87015486 16.5410108 C198.67044474 16.5524222 183.47083106 16.53929412 168.27113676 16.51780933 C155.22367829 16.49993782 142.17636215 16.50304177 129.12890625 16.52148438 C113.98430156 16.54288122 98.83978142 16.55132352 83.69516373 16.53903532 C82.08083345 16.5377611 80.46650316 16.53650362 78.85217285 16.53526306 C78.05785189 16.53464596 77.26353094 16.53402886 76.44513965 16.53339306 C70.84243414 16.52993659 65.23978218 16.53577487 59.63708496 16.54518127 C52.81100587 16.55638949 45.98511081 16.55338618 39.15905285 16.5320583 C35.67496802 16.52153182 32.19119023 16.51745282 28.70710754 16.53065491 C24.93366037 16.54152773 21.16108631 16.52794532 17.38769531 16.50793457 C16.28148205 16.51685746 15.17526878 16.52578034 14.03553391 16.53497362 C13.02681858 16.52454263 12.01810326 16.51411164 10.9788208 16.50336456 C10.10763233 16.50271515 9.23644386 16.50206574 8.33885574 16.50139666 C6 16 6 16 2 12 C1.34 8.04 0.68 4.08 0 0 Z " fill="#000000" transform="translate(34,464)"/>
<path d="M0 0 C5.28 0 10.56 0 16 0 C16.09288411 13.50026255 16.16385856 27.00044845 16.20724869 40.50096607 C16.22807901 46.77053467 16.25631372 53.03988383 16.30175781 59.30932617 C16.34537753 65.36531911 16.36917134 71.42110163 16.37950897 77.47723961 C16.3868714 79.78199257 16.40124822 82.08673466 16.42292023 84.39139748 C16.452168 87.6320299 16.45594702 90.87180462 16.45410156 94.11254883 C16.46848267 95.05482834 16.48286377 95.99710785 16.49768066 96.96794128 C16.43042683 107.95877033 12.57565186 117.06431716 5 125 C-5.93176751 135.4358083 -17.61249417 136.58804447 -32.04296875 136.390625 C-33.66391801 136.38314834 -35.28487642 136.37746216 -36.90583801 136.37347412 C-41.13593273 136.35832968 -45.36546266 136.31914733 -49.59533691 136.2746582 C-53.92611047 136.2334613 -58.25697686 136.2154114 -62.58789062 136.1953125 C-71.05887959 136.15263961 -79.52930409 136.08238435 -88 136 C-88 130.72 -88 125.44 -88 120 C-86.10838135 119.98018066 -84.2167627 119.96036133 -82.26782227 119.93994141 C-75.98931062 119.87192914 -69.71095334 119.79513652 -63.43261814 119.71247292 C-59.62935025 119.66271386 -55.82610742 119.61638365 -52.02270508 119.578125 C-48.34618073 119.54101252 -44.66987714 119.49458568 -40.99354362 119.44193649 C-39.59710535 119.42352941 -38.20062001 119.40837203 -36.80410957 119.39665604 C-20.87970867 119.47940028 -20.87970867 119.47940028 -7.59375 111.58203125 C-1.02255452 104.15123171 -0.85674579 95.9543764 -0.79467773 86.50634766 C-0.78477814 85.56912872 -0.77487854 84.63190979 -0.76467896 83.66629028 C-0.73320422 80.58223966 -0.70836218 77.49817366 -0.68359375 74.4140625 C-0.6630121 72.27029022 -0.64201532 70.12652189 -0.62062073 67.98275757 C-0.56552511 62.3505575 -0.5160608 56.71832157 -0.46777344 51.08605957 C-0.41746691 45.33468447 -0.36182868 39.58336121 -0.30664062 33.83203125 C-0.19921212 22.55473183 -0.09773335 11.27738732 0 0 Z " fill="#000000" transform="translate(440,272)"/>
<path d="M0 0 C4.8846525 2.26787438 7.73212562 5.1153475 10 10 C10.75381535 15.5997712 10.77303575 20.33499991 8.375 25.5 C3.80134327 30.3143755 0.6912538 32.25156236 -6 32.5 C-12.6912538 32.25156236 -15.80134327 30.3143755 -20.375 25.5 C-22.77303575 20.33499991 -22.75381535 15.5997712 -22 10 C-17.52212837 0.3553534 -9.85292056 -1.32635469 0 0 Z " fill="#000000" transform="translate(334,264)"/>
</svg>
