<?xml version="1.0" encoding="UTF-8"?>
<svg version="1.1" xmlns="http://www.w3.org/2000/svg" width="512" height="512">
<path d="M0 0 C15.58185939 13.30992376 30.01769814 32.69526874 32.26171875 53.7890625 C32.04574085 57.3372709 30.88845283 58.7261361 28.40338993 61.23459625 C24.97457456 63.95588036 22.2873528 64.20992344 17.88560486 64.20739746 C17.18980224 64.21378628 16.49399962 64.2201751 15.77711207 64.22675753 C13.45750308 64.24195611 11.13961645 64.22158316 8.82006836 64.20117188 C7.15243465 64.20467462 5.48480428 64.21033494 3.81718445 64.21798706 C-0.70353545 64.23222163 -5.22364613 64.21518738 -9.74430776 64.19170189 C-14.47719538 64.17158064 -19.21005802 64.17747305 -23.94297791 64.17980957 C-31.88957761 64.17975602 -39.83593938 64.16000926 -47.7824707 64.12792969 C-56.96887687 64.09102504 -66.15497154 64.08225608 -75.34144217 64.0892272 C-84.18132422 64.09553258 -93.0210995 64.08477808 -101.86096001 64.06526184 C-105.62201904 64.05708864 -109.38302349 64.05437814 -113.14409065 64.05595398 C-117.57239603 64.056833 -122.00040544 64.04261218 -126.42863274 64.01672745 C-128.05359334 64.00956639 -129.67858544 64.00748174 -131.30355835 64.01084518 C-133.52199349 64.01456111 -135.73956539 63.99980978 -137.957901 63.98034668 C-139.19913758 63.97661797 -140.44037416 63.97288925 -141.71922398 63.96904755 C-145.25229319 63.55300867 -147.13126275 62.68134127 -149.97265625 60.5859375 C-152.70601645 57.07161725 -152.33319099 52.84062743 -151.97265625 48.5859375 C-151.33012811 45.87888172 -150.38675863 43.35132686 -149.34765625 40.7734375 C-149.07332764 40.07621582 -148.79899902 39.37899414 -148.51635742 38.66064453 C-139.12177817 15.31816947 -122.12070972 -2.40097797 -99.41015625 -13.2265625 C-66.24887738 -27.24517893 -28.09784264 -23.06436408 0 0 Z " fill="#000000" transform="translate(462.97265625,251.4140625)"/>
<path d="M0 0 C1.14069946 -0.00525696 2.28139893 -0.01051392 3.45666504 -0.01593018 C7.21604221 -0.02910158 10.97499374 -0.0204018 14.734375 -0.01025391 C17.35319093 -0.01227545 19.97200631 -0.01518756 22.59082031 -0.01895142 C28.07491644 -0.02439919 33.5588911 -0.01724319 39.04296875 -0.00292969 C45.37044128 0.01339506 51.69762375 0.00810585 58.02508926 -0.0084089 C64.1285408 -0.02369736 70.2318644 -0.02203582 76.33532715 -0.0132637 C78.92525269 -0.01126446 81.51518566 -0.01371126 84.10510254 -0.02070236 C87.72651697 -0.02833286 91.3473768 -0.01668924 94.96875 0 C96.0359729 -0.00607269 97.1031958 -0.01214539 98.20275879 -0.0184021 C104.70495773 0.03702562 110.09871976 0.47317998 115.2265625 4.88818359 C119.22324402 10.18034119 119.64206458 14.04789148 119.67724609 20.49633789 C119.68951233 21.7359301 119.68951233 21.7359301 119.70202637 23.00056458 C119.72685502 25.73783651 119.74339157 28.4750566 119.7578125 31.21240234 C119.76313618 32.14846628 119.76845985 33.08453022 119.77394485 34.04895973 C119.80066783 39.00536912 119.82004385 43.96175341 119.83447266 48.91821289 C119.84780254 53.01446916 119.8756388 57.11022619 119.91650391 61.20629883 C119.96589373 66.15704757 119.99060173 71.10734404 119.99769974 76.05832863 C120.00440108 77.94133248 120.01959402 79.82432669 120.04359055 81.70718956 C120.07534174 84.3496753 120.07526408 86.99042888 120.06787109 89.63305664 C120.08427643 90.40374481 120.10068176 91.17443298 120.11758423 91.96847534 C120.05096916 97.81660858 118.35321354 101.96674931 114.484375 106.38818359 C110.05773571 109.46560869 106.5924547 109.72151126 101.2800293 109.55078125 C99.83941214 109.51532109 98.39879422 109.47989161 96.95817566 109.44448853 C95.82310609 109.40809202 95.82310609 109.40809202 94.66510582 109.37096024 C90.60505492 109.25257217 86.54381734 109.22356132 82.48242188 109.17724609 C77.33726858 109.11215965 72.19603013 109.02245754 67.0534668 108.84326172 C45.15981072 107.29797343 45.15981072 107.29797343 26.17573547 116.17538452 C23.5507242 119.03610885 21.21846954 121.98027755 19.02114868 125.17987061 C17.45798887 127.42609994 15.79491986 129.49626732 14.01049805 131.5703125 C13.50141403 132.16276764 12.99233002 132.75522278 12.46781921 133.3656311 C9.65681366 136.23206226 6.53259688 138.77542199 3.484375 141.38818359 C3.484375 130.82818359 3.484375 120.26818359 3.484375 109.38818359 C-2.16999172 109.5454788 -2.16999172 109.5454788 -7.82275391 109.74853516 C-13.21942889 109.82384325 -16.25480752 108.99849459 -20.515625 105.38818359 C-25.27114424 99.34738888 -25.66573432 94.25934038 -25.66088867 86.78735352 C-25.66424728 86.03869522 -25.6676059 85.29003693 -25.67106628 84.51869202 C-25.68053864 82.05199508 -25.68251761 79.58536632 -25.68359375 77.11865234 C-25.6868092 75.39618401 -25.69017349 73.67371594 -25.69367981 71.95124817 C-25.69966199 68.34257372 -25.70152067 64.73392319 -25.70092773 61.12524414 C-25.70082623 56.51542751 -25.71447042 51.9057653 -25.73169994 47.29598522 C-25.74285376 43.73821823 -25.74484589 40.18048815 -25.74431801 36.62270546 C-25.74549333 34.92395814 -25.74988985 33.22520972 -25.75765038 31.52647972 C-25.76751761 29.14327763 -25.7645458 26.76040539 -25.75854492 24.37719727 C-25.76416443 23.68445709 -25.76978394 22.99171692 -25.77557373 22.27798462 C-25.73690162 16.19225764 -25.14074439 10.47762281 -21.328125 5.57568359 C-14.43582072 0.21500249 -8.4726879 -0.04821114 0 0 Z M1.96838379 24.73231506 C0.22013138 27.33598607 0.22013138 27.33598607 0.546875 30.51318359 C1.49040588 33.40667828 2.06106977 34.61730669 4.484375 36.38818359 C8.07422951 37.58480176 11.35238315 37.54358936 15.08935547 37.54931641 C15.86204773 37.55428131 16.63473999 37.55924622 17.43084717 37.56436157 C19.98776133 37.57896998 22.54461346 37.58578276 25.1015625 37.59130859 C26.87891644 37.59706085 28.65627036 37.60281858 30.43362427 37.60858154 C34.16099334 37.61908757 37.88834086 37.62493294 41.61572266 37.62841797 C46.38962004 37.63390381 51.16323237 37.65793536 55.93704033 37.68638992 C59.60878327 37.70502151 63.28045759 37.71022217 66.9522438 37.71175385 C68.71209396 37.71477941 70.47194293 37.7228047 72.23174667 37.73593903 C74.69491982 37.75301161 77.15739701 37.75111658 79.62060547 37.74462891 C80.70865982 37.75845108 80.70865982 37.75845108 81.81869507 37.77255249 C86.20785866 37.73637519 88.99400721 37.08931875 92.484375 34.38818359 C93.90479321 31.54734718 93.79889772 29.53341082 93.484375 26.38818359 C92.03525272 24.06351589 92.03525272 24.06351589 89.484375 22.38818359 C86.62526622 21.98843695 84.14971753 21.83063815 81.29101562 21.85473633 C80.46780319 21.84612076 79.64459076 21.83750519 78.7964325 21.82862854 C76.07750944 21.80594066 73.35961464 21.81271195 70.640625 21.82177734 C68.75020033 21.81654324 66.85977828 21.81026755 64.96936035 21.80299377 C61.00825711 21.79258456 57.04751299 21.79715887 53.08642578 21.81176758 C48.00837262 21.828962 42.93145023 21.80545493 37.85352325 21.77027798 C33.95013928 21.74832671 30.04702686 21.74973982 26.14360046 21.75804329 C24.27128356 21.75886395 22.39894695 21.75197872 20.52668762 21.73727226 C17.90966076 21.71986651 15.29467862 21.73433378 12.67773438 21.75708008 C11.90358688 21.74538788 11.12943939 21.73369568 10.33183289 21.72164917 C6.49313186 21.78959341 4.82086354 22.07467957 1.96838379 24.73231506 Z M2.484375 49.38818359 C0.57735725 51.93087393 0.47849741 53.24418252 0.609375 56.45068359 C1.66555144 59.99641878 2.27364664 60.63112753 5.484375 62.38818359 C8.260167 62.68357189 10.81086579 62.8085706 13.5859375 62.79223633 C14.80612579 62.8025312 14.80612579 62.8025312 16.05096436 62.81303406 C18.73727925 62.83132122 21.42301127 62.8274623 24.109375 62.82177734 C25.97737824 62.82633788 27.8453798 62.83164307 29.71337891 62.83766174 C33.62734801 62.84659634 37.54111311 62.84416534 41.45507812 62.83422852 C46.47244329 62.822732 51.48910539 62.84295892 56.50637817 62.87214565 C60.36340817 62.89048419 64.2202689 62.89022 68.07733154 62.88450813 C69.92731717 62.88435466 71.77731409 62.89042006 73.6272583 62.90279961 C76.2128931 62.9176656 78.79721889 62.90706606 81.3828125 62.88989258 C82.53000763 62.90439453 82.53000763 62.90439453 83.70037842 62.91918945 C87.15855442 62.8710538 89.1354676 62.64274915 91.96337891 60.57948303 C94.16661268 57.4052836 93.96388367 55.15575174 93.484375 51.38818359 C91.65322293 48.77225207 90.57469134 48.41828904 87.484375 47.38818359 C84.90457511 47.28699255 82.35172295 47.24134062 79.77172852 47.24291992 C78.98767639 47.23956131 78.20362427 47.2362027 77.39581299 47.23274231 C74.80161967 47.22323623 72.20749091 47.22128943 69.61328125 47.22021484 C67.81111118 47.21700223 66.00894137 47.21363815 64.20677185 47.21012878 C60.42812495 47.20413852 56.64950092 47.2022888 52.87084961 47.20288086 C48.02741591 47.20298252 43.18412868 47.18932557 38.34072971 47.17210865 C34.6184166 47.16099444 30.89613897 47.15896147 27.17381096 47.15949059 C25.38802523 47.15830978 23.60223861 47.15388237 21.81646919 47.14615822 C19.31968015 47.13636922 16.82321011 47.13923192 14.32641602 47.14526367 C13.58810043 47.13964417 12.84978485 47.13402466 12.08909607 47.12823486 C8.40616397 47.15086237 5.57041001 47.26700226 2.484375 49.38818359 Z M0.484375 78.38818359 C0.42087502 82.07118263 0.48913136 84.31741538 3.05116272 87.0738678 C6.47199461 88.92165289 9.6861142 88.81488061 13.47827148 88.79223633 C14.68141998 88.8025312 14.68141998 88.8025312 15.90887451 88.81303406 C18.5579198 88.83132177 21.20637394 88.82746177 23.85546875 88.82177734 C25.69865614 88.8263383 27.54184182 88.83164362 29.38502502 88.83766174 C33.24772043 88.84659678 37.11020913 88.84416537 40.97290039 88.83422852 C45.92066886 88.82274005 50.86772353 88.84294632 55.81539822 88.87214565 C59.62185695 88.89050052 63.42814442 88.8902166 67.23463631 88.88450813 C69.05867578 88.88435482 70.88272679 88.89040731 72.70672417 88.90279961 C75.25863155 88.91769403 77.80921768 88.90704462 80.36108398 88.88989258 C81.48886009 88.90439453 81.48886009 88.90439453 82.63941956 88.91918945 C86.24423305 88.86850771 88.35098801 88.46962759 91.45301819 86.57557678 C93.80014557 84.44375593 93.80014557 84.44375593 94.109375 80.88818359 C93.80047039 77.3324582 93.80047039 77.3324582 91.45202637 75.20277405 C87.71531042 72.91793387 84.6273089 72.81776704 80.37695312 72.85473633 C79.5747081 72.84612076 78.77246307 72.83750519 77.94590759 72.82862854 C75.30214902 72.80598224 72.65945152 72.81270418 70.015625 72.82177734 C68.17386561 72.81654143 66.33210892 72.81026507 64.49035645 72.80299377 C60.63357916 72.79259228 56.7771709 72.79714782 52.92041016 72.81176758 C47.98035595 72.82896188 43.04146413 72.8054512 38.10153961 72.77027798 C34.29933988 72.74830871 30.49741855 72.74974417 26.69517517 72.75804329 C24.87392399 72.75886294 23.05265241 72.75199688 21.23146057 72.73727226 C18.68418064 72.71983289 16.13899296 72.73436138 13.59179688 72.75708008 C12.84151718 72.74538788 12.09123749 72.73369568 11.31822205 72.72164917 C6.02095406 72.81767966 3.63329805 74.15147132 0.484375 78.38818359 Z " fill="#000000" transform="translate(172.515625,184.61181640625)"/>
<path d="M0 0 C0.92039063 0.44085938 1.84078125 0.88171875 2.7890625 1.3359375 C9.9764181 5.00047655 15.99397012 9.63996752 22 15 C22.845625 15.75023437 23.69125 16.50046875 24.5625 17.2734375 C37.25587536 29.2131437 48.90268731 47.17386014 50.3125 64.9375 C50.28194324 68.21318431 49.98906559 69.01713057 48.125 71.9375 C44.53357095 75.42329878 42.1889305 75.13211782 37.26335144 75.15390015 C36.2125234 75.16047353 36.2125234 75.16047353 35.14046651 75.1671797 C32.78138582 75.18058716 30.42234249 75.18675089 28.06323242 75.19287109 C26.37648855 75.20077048 24.68974637 75.20903933 23.00300598 75.21765137 C17.45384337 75.24388863 11.90467313 75.25917988 6.35546875 75.2734375 C4.44685676 75.27879632 2.53824483 75.28417383 0.62963295 75.28956985 C-7.30798723 75.31120034 -15.24560536 75.32993816 -23.18324757 75.34119225 C-34.56801258 75.35743865 -45.95243667 75.3906312 -57.33707315 75.44759309 C-65.3371255 75.48625934 -73.33708654 75.50582095 -81.33722991 75.51111281 C-86.11790191 75.5147706 -90.89821045 75.52683711 -95.67878151 75.55921555 C-100.17602294 75.58923824 -104.67267988 75.5956289 -109.17000008 75.58383179 C-110.82079494 75.58361057 -112.47161647 75.59195549 -114.12231827 75.60948563 C-116.37638555 75.63212082 -118.62832316 75.62391151 -120.88240051 75.60800171 C-122.77417133 75.61296693 -122.77417133 75.61296693 -124.70415974 75.61803246 C-128.90183822 74.83088826 -130.36883496 73.2938182 -133 70 C-135.79674533 61.03112706 -130.60931127 50.85863291 -126.75 42.8125 C-123.38064583 36.40285811 -119.55405997 30.62413964 -115 25 C-114.26136719 24.08476562 -113.52273437 23.16953125 -112.76171875 22.2265625 C-85.41907959 -9.72539226 -37.43997916 -18.34451701 0 0 Z " fill="#000000" transform="translate(151,401)"/>
<path d="M0 0 C1.21043472 -0.00700928 2.42086945 -0.01401855 3.66798401 -0.02124023 C6.97613117 -0.03579886 10.28327369 -0.0324298 13.59136391 -0.01972389 C17.05990534 -0.00956748 20.52840505 -0.01899688 23.99694824 -0.02526855 C29.82079742 -0.03253733 35.64444342 -0.02297768 41.46826172 -0.00390625 C48.19285792 0.01786125 54.91696895 0.01080932 61.6415534 -0.01121187 C67.42435264 -0.02938802 73.20700618 -0.03191345 78.98982477 -0.0214572 C82.43962203 -0.01523433 85.88919155 -0.01435303 89.338974 -0.02760315 C93.1858086 -0.04134733 97.03210365 -0.02227572 100.87890625 0 C102.01675064 -0.00809692 103.15459503 -0.01619385 104.32691956 -0.02453613 C110.28247483 0.03935764 114.49167345 0.12069484 118.93945312 4.51757812 C122.6413686 9.80021612 123.52595732 14.67525403 123.45703125 21.00976562 C123.46404053 21.81738342 123.4710498 22.62500122 123.47827148 23.45709229 C123.49574612 26.10261348 123.48426682 28.74704779 123.47070312 31.39257812 C123.47340108 33.24528202 123.47728602 35.09798452 123.4822998 36.95068359 C123.48818058 40.82403105 123.47967787 44.69700826 123.4609375 48.5703125 C123.43814877 53.51994299 123.4512795 58.46870574 123.47522736 63.41830444 C123.48972385 67.24119533 123.48506173 71.06388256 123.47471619 74.88677979 C123.47205953 76.71112167 123.47528107 78.53548241 123.4846344 80.35980225 C123.49486387 82.9154922 123.47921108 85.46980267 123.45703125 88.02539062 C123.46512817 88.76952209 123.4732251 89.51365356 123.48156738 90.28033447 C123.39438625 95.73896311 121.94657894 99.94428686 118.93945312 104.51757812 C114.77716447 108.44519769 111.39444916 108.95042365 105.90478516 108.87792969 C104.96747559 108.84151367 104.03016602 108.80509766 103.06445312 108.76757812 C100.05320312 108.68507813 97.04195313 108.60257812 93.93945312 108.51757812 C93.93945312 119.07757813 93.93945312 129.63757813 93.93945312 140.51757812 C86.07105905 133.77324035 86.07105905 133.77324035 83.29101562 130.74804688 C82.67742187 130.08611328 82.06382812 129.42417969 81.43164062 128.7421875 C80.81546875 128.06994141 80.19929688 127.39769531 79.56445312 126.70507812 C77.72772274 124.71074693 75.88955692 122.72300339 74.0096283 120.76925659 C71.93945312 118.51757812 71.93945312 118.51757812 70.18873596 116.17544556 C66.91800298 112.1717615 64.41829626 109.84069505 59.28009033 108.71803284 C54.80854952 108.33362462 50.34673318 108.45395191 45.86523438 108.56054688 C44.21095891 108.56505846 42.55666534 108.56500601 40.90238953 108.56062317 C36.56872442 108.55866849 32.23721525 108.60673811 27.90405273 108.66918945 C20.96024217 108.7631543 14.01629228 108.79090425 7.07192039 108.7988224 C4.65505248 108.81035684 2.2398113 108.8496996 -0.17668152 108.89237976 C-1.6635991 108.90265573 -3.15052256 108.91212347 -4.63745117 108.9206543 C-5.9293486 108.93891769 -7.22124603 108.95718109 -8.55229187 108.97599792 C-12.86652765 108.41226151 -14.80796705 107.40679077 -18.06054688 104.51757812 C-21.789851 99.2721408 -22.6467752 94.33454862 -22.578125 88.02539062 C-22.58863892 86.81396393 -22.58863892 86.81396393 -22.59936523 85.57806396 C-22.61683987 82.93254277 -22.60536057 80.28810846 -22.59179688 77.64257812 C-22.59449483 75.78987423 -22.59837977 73.93717173 -22.60339355 72.08447266 C-22.60927433 68.2111252 -22.60077162 64.33814799 -22.58203125 60.46484375 C-22.55924252 55.51521326 -22.57237325 50.56645051 -22.59632111 45.61685181 C-22.6108176 41.79396092 -22.60615548 37.97127369 -22.59580994 34.14837646 C-22.59315328 32.32403458 -22.59637482 30.49967384 -22.60572815 28.675354 C-22.61595762 26.11966405 -22.60030483 23.56535358 -22.578125 21.00976562 C-22.58622192 20.26563416 -22.59431885 19.52150269 -22.60266113 18.75482178 C-22.49363118 11.92818375 -20.44251041 6.87228461 -15.56433105 2.04992676 C-10.38282795 -0.21615722 -5.59819948 -0.0398369 0 0 Z M5.46144104 23.36341858 C3.39485707 26.28837714 3.42757167 28.00753385 3.93945312 31.51757812 C5.71929717 34.65349383 6.46253519 35.35860548 9.93945312 36.51757812 C12.51379904 36.6238467 15.06147372 36.67481498 17.63623047 36.67871094 C18.4186763 36.68367584 19.20112213 36.68864075 20.00727844 36.6937561 C22.5966581 36.7083654 25.18597651 36.71517744 27.77539062 36.72070312 C29.57516481 36.72645531 31.37493898 36.73221303 33.17471313 36.73797607 C36.94916062 36.74848235 40.72358682 36.75432756 44.49804688 36.7578125 C49.33247685 36.76329844 54.16662535 36.78733011 59.00096703 36.81578445 C62.719033 36.8344151 66.43703121 36.83961665 70.15513992 36.84114838 C71.93731857 36.84417414 73.71949605 36.85220012 75.50162888 36.86533356 C77.99593233 36.88240416 80.48954841 36.88051158 82.98388672 36.87402344 C84.08596718 36.88784561 84.08596718 36.88784561 85.21031189 36.90194702 C89.60775236 36.86614731 92.49621388 36.3223094 95.93945312 33.51757812 C97.27605457 30.1616495 97.27605457 30.1616495 96.93945312 26.51757812 C94.22394782 22.85883555 92.71433715 21.64692497 88.1761322 20.88938904 C86.69244659 20.86286695 85.20811285 20.86368396 83.72436523 20.88647461 C82.91076035 20.87931931 82.09715546 20.872164 81.25889587 20.86479187 C78.57761984 20.84792413 75.89802022 20.86729339 73.21679688 20.88867188 C71.35022341 20.88784308 69.48365001 20.88538328 67.61708069 20.88136292 C63.70893331 20.87850635 59.80135951 20.89319366 55.89331055 20.9206543 C50.88376139 20.95476057 45.87523617 20.94870974 40.86563778 20.92999172 C37.01285769 20.91942469 33.16031598 20.92835643 29.30755806 20.94337654 C27.46038076 20.94855941 25.61317858 20.94807528 23.76600456 20.94183159 C21.18517356 20.93638196 18.60581024 20.95674425 16.02514648 20.98413086 C15.26192078 20.97760498 14.49869507 20.9710791 13.71234131 20.96435547 C10.23653321 21.0270844 8.28438533 21.2606424 5.46144104 23.36341858 Z M4.93945312 49.51757812 C3.51903492 52.35841454 3.6249304 54.3723509 3.93945312 57.51757812 C6.32495833 60.66985287 8.11270669 61.85314806 11.93945312 62.51757812 C14.42987931 62.61637441 16.89225397 62.6644592 19.38256836 62.6628418 C20.49793472 62.66787971 20.49793472 62.66787971 21.63583374 62.67301941 C24.08992185 62.68250582 26.54394158 62.68447127 28.99804688 62.68554688 C30.7067111 62.68876076 32.41537505 62.69212493 34.1240387 62.69563293 C37.70419961 62.7016182 41.28433639 62.70347342 44.86450195 62.70288086 C49.44886009 62.7027792 54.03306346 62.71643783 58.61738491 62.73365307 C62.14586598 62.74477809 65.67430966 62.74679992 69.20280647 62.74627113 C70.89286902 62.74745024 72.58293257 62.75186815 74.27297783 62.7596035 C76.63774301 62.76941474 79.00217263 62.76652109 81.36694336 62.76049805 C82.41056282 62.76892731 82.41056282 62.76892731 83.4752655 62.77752686 C88.24978224 62.74666831 91.81005799 61.98612649 95.75195312 59.26757812 C97.58145523 56.57146975 97.39297179 54.69220877 96.93945312 51.51757812 C94.70738882 48.66977194 93.38952314 47.66760146 89.93945312 46.51757812 C87.4313572 46.41146633 84.95063579 46.36034811 82.44213867 46.35644531 C81.68080627 46.35148041 80.91947388 46.3465155 80.1350708 46.34140015 C77.61542863 46.32679095 75.09584944 46.31997833 72.57617188 46.31445312 C70.82363381 46.30870031 69.07109577 46.30294259 67.31855774 46.29718018 C63.64246325 46.28667349 59.9663906 46.28082876 56.2902832 46.27734375 C51.58598448 46.27186207 46.88197563 46.24783967 42.17776775 46.2193718 C38.55659652 46.20072245 34.93549476 46.19553858 31.31427956 46.19400787 C29.58037546 46.19098561 27.84647246 46.18297147 26.11261559 46.16982269 C23.68317166 46.15271521 21.25443135 46.15465377 18.82495117 46.16113281 C18.11252762 46.15191803 17.40010406 46.14270325 16.66609192 46.13320923 C12.04007679 46.17174019 8.86455895 47.06944764 4.93945312 49.51757812 Z M3.93945312 77.51757812 C3.18930118 80.56066103 3.18930118 80.56066103 3.93945312 83.51757812 C5.41536346 85.82329718 5.41536346 85.82329718 7.93945312 87.51757812 C10.76421552 87.91737675 13.20092392 88.0751736 16.02514648 88.05102539 C16.83699905 88.05964096 17.64885162 88.06825653 18.48530579 88.07713318 C21.16696119 88.0998218 23.84757394 88.09304895 26.52929688 88.08398438 C28.39490571 88.08921896 30.26051189 88.09549483 32.12611389 88.10276794 C36.03594415 88.11317768 39.94541059 88.10860289 43.85522461 88.09399414 C48.86368333 88.07681159 53.87099429 88.10029177 58.87932491 88.13548374 C62.73213797 88.15745431 66.5846763 88.15601701 70.43753242 88.14771843 C72.28390321 88.1468986 74.1302941 88.15376806 75.97660637 88.16848946 C78.559908 88.18592811 81.14114629 88.17139994 83.72436523 88.14868164 C84.86616745 88.16621994 84.86616745 88.16621994 86.03103638 88.18411255 C89.97310963 88.11364478 91.78495278 87.63646865 94.94508362 85.20469666 C97.28051908 82.58954042 97.28051908 82.58954042 97.06445312 78.89257812 C96.25862999 75.47001216 96.25862999 75.47001216 93.87011719 73.83288574 C90.1789415 72.17625387 86.89390982 72.08195335 82.92382812 72.09765625 C82.13133667 72.08918671 81.33884521 72.08071716 80.52233887 72.07199097 C77.91121229 72.04865365 75.30067595 72.04759787 72.68945312 72.04882812 C70.8701148 72.0417255 69.05077871 72.03402635 67.23144531 72.02575684 C63.42181161 72.01232024 59.61238513 72.01073998 55.80273438 72.01660156 C50.92324984 72.02250252 46.04475863 71.99188625 41.16546631 71.95148468 C37.40961357 71.92562606 33.65400077 71.92272847 29.89807129 71.92637634 C28.09913635 71.92468394 26.30019047 71.91502979 24.50134277 71.89723206 C21.9852455 71.87507341 19.47116899 71.88472613 16.95507812 71.90234375 C16.21414917 71.88908051 15.47322021 71.87581726 14.70983887 71.8621521 C9.42191451 71.94810133 7.13183108 73.35411496 3.93945312 77.51757812 Z " fill="#000000" transform="translate(227.060546875,35.482421875)"/>
<path d="M0 0 C9.3446463 8.43613902 15.37509959 20.02682068 16.25 32.58984375 C16.78216435 45.63262183 14.05483608 56.51101015 6 67 C5.4225 67.86625 4.845 68.7325 4.25 69.625 C-5.06839379 79.46108233 -17.88861885 84.86953118 -31.3125 85.3125 C-45.001968 85.0065901 -56.79486535 79.87243091 -66.671875 70.5234375 C-76.93500943 59.39930186 -79.95291492 47.86318912 -80 33 C-79.37647446 20.41152499 -73.023562 8.66591928 -63.87890625 0.19140625 C-44.46222216 -14.58845776 -19.48022023 -15.34067343 0 0 Z " fill="#000000" transform="translate(141,298)"/>
<path d="M0 0 C0.93070312 0.49757812 1.86140625 0.99515625 2.8203125 1.5078125 C14.9726853 8.62704997 21.76064159 18.35639379 25.84765625 31.78515625 C28.55939873 43.97901815 26.82423781 56.70955379 20.54296875 67.50390625 C19.09586226 69.72768762 17.57763312 71.86759479 16 74 C15.4225 74.86625 14.845 75.7325 14.25 76.625 C6.45607935 84.85191624 -4.59075121 90.6215315 -15.9765625 91.203125 C-24.41574946 91.34483793 -32.11714549 91.39523696 -40 88 C-40.66773438 87.74476563 -41.33546875 87.48953125 -42.0234375 87.2265625 C-53.5487708 82.2611027 -61.63989743 72.0281226 -66.3125 60.6875 C-70.57694152 49.51358362 -70.69515818 36.08465604 -66 25 C-65.74476563 24.33097656 -65.48953125 23.66195312 -65.2265625 22.97265625 C-60.19430327 11.31535849 -49.20881353 2.23838535 -37.625 -2.4375 C-25.80615361 -5.96939329 -10.96720404 -5.9215894 0 0 Z " fill="#000000" transform="translate(424,130)"/>
<path d="M0 0 C2.60965139 0.8698838 3.65993532 1.44151119 5.09350204 3.79586029 C6.08995959 6.21873573 6.25144418 7.90572265 6.25396729 10.51623535 C6.26242676 11.8662841 6.26242676 11.8662841 6.27105713 13.24360657 C6.26498444 14.71340218 6.26498444 14.71340218 6.25878906 16.21289062 C6.26404602 17.7695771 6.26404602 17.7695771 6.26940918 19.35771179 C6.27821684 22.79062576 6.27238064 26.22333391 6.265625 29.65625 C6.26697192 32.0399174 6.26891269 34.42358452 6.27142334 36.80725098 C6.2743733 41.80398167 6.27008101 46.80064089 6.26074219 51.79736328 C6.2493478 58.20680684 6.25590795 64.61608291 6.26788712 71.02552032 C6.27510912 75.94794988 6.2728162 80.87033964 6.26763153 85.79277039 C6.26629598 88.15630615 6.26793944 90.51984551 6.27259064 92.88337708 C6.27766136 96.18471877 6.26993768 99.48578801 6.25878906 102.78710938 C6.26283752 103.76697311 6.26688599 104.74683685 6.27105713 105.75639343 C6.26541748 106.65642593 6.25977783 107.55645844 6.25396729 108.48376465 C6.25283621 109.65402317 6.25283621 109.65402317 6.25168228 110.84792328 C5.95718361 113.366113 5.41213574 114.89147125 4 117 C0.68502308 119.37226409 -2.45290305 119.25935896 -6.44134521 119.2784729 C-7.08588063 119.2842653 -7.73041605 119.2900577 -8.39448285 119.29602563 C-10.55177641 119.31301573 -12.70885591 119.31590121 -14.86621094 119.31884766 C-16.41358463 119.32814653 -17.96095331 119.33831515 -19.50831604 119.34928894 C-23.7083478 119.37660762 -27.90834598 119.39174388 -32.10844326 119.40471697 C-36.49805493 119.42033933 -40.88759796 119.4471324 -45.27716064 119.4727478 C-53.58912916 119.51955144 -61.90111056 119.55628788 -70.21314359 119.58942068 C-79.6762184 119.62763086 -89.1392243 119.67704391 -98.60224104 119.72740483 C-118.06811027 119.83074826 -137.53402155 119.92000083 -157 120 C-156.02546875 121.1446875 -156.02546875 121.1446875 -155.03125 122.3125 C-153 125 -153 125 -152.5 128 C-153.15176337 131.91058019 -153.93137644 133.45528778 -157 136 C-165.61564528 137.20498535 -170.8205174 133.84643215 -178 129.375 C-179.02867187 128.75753906 -180.05734375 128.14007813 -181.1171875 127.50390625 C-184.09968549 125.70150607 -187.05428004 123.86180032 -190 122 C-190.88921143 121.44159424 -191.77842285 120.88318848 -192.69458008 120.30786133 C-193.90730591 119.527052 -193.90730591 119.527052 -195.14453125 118.73046875 C-195.85198486 118.27567139 -196.55943848 117.82087402 -197.28833008 117.35229492 C-199 116 -199 116 -200.6875 112.9375 C-201.0557608 109.47584843 -200.80084989 107.97531722 -199 105 C-193.83921543 100.50438066 -187.90309751 97.29826867 -181.98950195 93.91723633 C-180.0660135 92.81451426 -178.15119972 91.69767976 -176.23632812 90.58007812 C-175.00310941 89.87151575 -173.76940129 89.16380435 -172.53515625 88.45703125 C-170.87045288 87.4976062 -170.87045288 87.4976062 -169.17211914 86.51879883 C-165.99321482 84.99675128 -163.50464622 84.26101394 -160 84 C-156.47093933 85.60411848 -155.17227092 86.74159362 -153 90 C-152.5625 92.875 -152.5625 92.875 -153 96 C-154.65 97.65 -156.3 99.3 -158 101 C-109.49 101.33 -60.98 101.66 -11 102 C-11.19790614 70.30215573 -11.19790614 70.30215573 -11.45043945 38.60473633 C-11.47302246 32.47009277 -11.47302246 32.47009277 -11.47721863 29.5969696 C-11.48488991 27.5929662 -11.50246195 25.5889857 -11.52787781 23.58512878 C-11.56448122 20.54698685 -11.56953024 17.51025324 -11.56762695 14.47192383 C-11.58561749 13.58118321 -11.60360804 12.6904426 -11.62214375 11.77270985 C-11.58509314 7.35432515 -11.42285789 5.55284689 -8.65592957 1.93534851 C-5.42630172 -0.41804803 -3.91427009 -0.5829764 0 0 Z " fill="#000000" transform="translate(424,331)"/>
<path d="M0 0 C3.93062257 1.74463736 7.59567928 3.852966 11.27246094 6.07910156 C12.98645465 7.11679928 14.71588821 8.12885297 16.4453125 9.140625 C33.25869725 19.08821923 33.25869725 19.08821923 35.1875 24.0625 C34.94869614 27.80376042 34.44731175 29.12080971 32 32 C25.21082085 37.07561942 17.71683333 41.23033304 10.375 45.4375 C9.281875 46.08654297 8.18875 46.73558594 7.0625 47.40429688 C-1.91204965 52.52717842 -1.91204965 52.52717842 -6.1171875 52.0390625 C-9.88029332 50.6827127 -11.17540762 49.57316008 -13 46 C-13.22157751 43.1582685 -13.06593258 40.65372799 -12 38 C-10.68 37.01 -9.36 36.02 -8 35 C-28.295 34.505 -28.295 34.505 -49 34 C-48.97905273 38.79039795 -48.95810547 43.5807959 -48.93652344 48.51635742 C-48.87032242 64.32220781 -48.82588851 80.12806356 -48.79275131 95.93401623 C-48.77212113 105.51964061 -48.74399183 115.10513371 -48.69824219 124.69067383 C-48.65838837 133.04488932 -48.6325705 141.39900974 -48.62364602 149.75331765 C-48.6184288 154.17739748 -48.60615705 158.60120529 -48.57707977 163.02519798 C-48.54993359 167.18911069 -48.54155333 171.35263929 -48.54756927 175.51663208 C-48.54646867 177.04486999 -48.53850979 178.57312072 -48.5231781 180.10128212 C-48.50326135 182.18881703 -48.50806524 184.27490379 -48.51898193 186.36247253 C-48.51529476 187.53038424 -48.51160759 188.69829596 -48.50780869 189.90159893 C-49.11051952 193.69573313 -50.24315846 195.35737809 -53 198 C-58.32835821 198.84577114 -58.32835821 198.84577114 -61 198 C-64.23718755 195.37517182 -65.82985355 193.89318215 -66.62082577 189.7409811 C-66.61881444 188.49714688 -66.61680311 187.25331266 -66.61473083 185.9717865 C-66.62041409 185.27613274 -66.62609735 184.58047897 -66.63195282 183.8637448 C-66.64484572 181.53867669 -66.62207802 179.21535324 -66.59936523 176.89038086 C-66.60122952 175.22127416 -66.60526664 173.55216869 -66.61131287 171.8830719 C-66.62128988 167.35407943 -66.60011413 162.82571253 -66.57283282 158.29681087 C-66.54900679 153.55812073 -66.5519478 148.81944309 -66.55152893 144.08070374 C-66.54690065 136.12392584 -66.52325646 128.16738721 -66.48706055 120.21069336 C-66.44531262 111.00899145 -66.42774485 101.80750497 -66.4244408 92.60571378 C-66.42084224 82.81181265 -66.40196941 73.01798914 -66.37732053 63.22412038 C-66.37108978 60.40054687 -66.36745481 57.57697926 -66.36428642 54.7534008 C-66.35838851 50.31859742 -66.34208282 45.88394819 -66.31768227 41.44920921 C-66.31023787 39.82060182 -66.30617005 38.19197502 -66.30570221 36.56335068 C-66.30444565 34.34248445 -66.29090974 32.12202546 -66.27415466 29.90122986 C-66.26950416 28.65777267 -66.26485365 27.41431547 -66.26006222 26.13317776 C-66.01197186 23.14423461 -65.64527676 21.47111093 -64 19 C-60.99642791 16.95200832 -58.4475425 16.73436944 -54.86425781 16.68115234 C-53.84350159 16.66128265 -52.82274536 16.64141296 -51.77105713 16.62094116 C-50.67613953 16.60938995 -49.58122192 16.59783875 -48.453125 16.5859375 C-47.3267865 16.56657135 -46.200448 16.5472052 -45.03997803 16.5272522 C-41.44339566 16.46748479 -37.84678124 16.42108181 -34.25 16.375 C-31.81118398 16.33681766 -29.3723814 16.29776578 -26.93359375 16.2578125 C-20.95584856 16.16178551 -14.97802234 16.07672952 -9 16 C-9.65355469 15.21898926 -10.30710938 14.43797852 -10.98046875 13.63330078 C-13 11 -13 11 -13.3125 8.8671875 C-12.81482195 5.69448991 -12.44319622 3.56729117 -10.4375 1 C-6.80665704 -0.4895766 -3.80991823 -0.72541614 0 0 Z " fill="#000000" transform="translate(148,75)"/>
</svg>
