<?xml version="1.0" encoding="UTF-8"?>
<svg version="1.1" xmlns="http://www.w3.org/2000/svg" width="512" height="512">
<path d="M0 0 C2.3666245 1.57331778 4.59502283 3.26338904 6.8359375 5.01171875 C32.37696018 24.024887 61.08745369 34.90885144 92.60498047 39.54394531 C97.88571054 40.38102563 101.7036919 41.37080723 105.8359375 45.01171875 C108.52776143 49.46647269 109.21382556 52.77946604 109.22412109 57.953125 C109.23200653 58.9548172 109.23200653 58.9548172 109.24005127 59.97674561 C109.25320414 62.17614487 109.24451439 64.3748125 109.234375 66.57421875 C109.23640088 68.12719865 109.23931658 69.68017762 109.24307251 71.2331543 C109.24749272 74.49472068 109.2410888 77.7560405 109.22705078 81.01757812 C109.2101839 85.13028626 109.21994445 89.24240275 109.23736668 93.35508919 C109.31367683 114.53545444 109.15113299 135.62173531 103.1484375 156.13671875 C102.76715698 157.47899536 102.76715698 157.47899536 102.37817383 158.84838867 C92.20395584 193.48214537 73.08028606 223.92161857 44.7890625 246.5625 C41.52496024 249.26963243 38.42828151 252.11230417 35.3359375 255.01171875 C30.60419281 259.44408265 25.7308433 263.59369024 20.66796875 267.6484375 C16.77596909 270.89624411 13.08927389 274.34929936 9.42578125 277.8515625 C4.38868902 282.60881627 0.11647091 286.58755764 -7.1640625 286.51171875 C-8.1540625 286.52203125 -9.1440625 286.53234375 -10.1640625 286.54296875 C-16.08005082 285.49534582 -20.09524087 281.32297175 -24.3515625 277.32421875 C-28.01101586 273.94169699 -31.71696242 270.69537142 -35.6015625 267.57421875 C-40.13430648 263.91836408 -44.41719102 260.07078893 -48.67456055 256.10449219 C-51.98556567 253.03892573 -55.39275166 250.15002206 -58.9140625 247.32421875 C-63.66021134 243.50131212 -67.94678762 239.40350156 -72.1640625 235.01171875 C-73.0096875 234.16609375 -73.8553125 233.32046875 -74.7265625 232.44921875 C-75.5309375 231.64484375 -76.3353125 230.84046875 -77.1640625 230.01171875 C-77.65003906 229.57214844 -78.13601563 229.13257813 -78.63671875 228.6796875 C-100.55675474 208.21062316 -113.36863879 176.46072544 -119.8515625 147.82421875 C-120.15537842 146.51795532 -120.15537842 146.51795532 -120.46533203 145.18530273 C-124.52062695 126.36826078 -124.54038907 107.1837909 -124.53466797 88.02587891 C-124.53446214 84.44195686 -124.56212134 80.8588044 -124.59621239 77.27506638 C-124.61851067 74.47648586 -124.62250517 71.67809291 -124.62144852 68.87943268 C-124.62490814 66.92304085 -124.64648166 64.96670744 -124.66854858 63.01043701 C-124.63177823 55.86254476 -124.08385211 51.05787725 -120.1640625 45.01171875 C-115.05667827 40.19252548 -108.72055468 39.72971925 -102.0390625 38.63671875 C-71.20239699 33.13794058 -41.81161538 21.89447982 -17.46875 1.78515625 C-12.61037229 -1.95332422 -5.59170833 -2.55361409 0 0 Z M33.50292969 95.91073608 C30.89121459 98.37886063 28.37103674 100.91469479 25.8671875 103.4921875 C24.94627319 104.42017654 24.02535889 105.34816559 23.07653809 106.30427551 C20.64541419 108.7543588 18.22969284 111.21908364 15.8170166 113.68731689 C13.3455829 116.21018363 10.85967641 118.71870228 8.375 121.22851562 C3.51449675 126.14241066 -1.3298634 131.0719475 -6.1640625 136.01171875 C-9.23180479 134.54686729 -11.29639914 133.09966021 -13.66015625 130.640625 C-14.30146484 129.98384766 -14.94277344 129.32707031 -15.60351562 128.65039062 C-16.93171694 127.27025573 -18.25984238 125.89004782 -19.58789062 124.50976562 C-24.51761906 119.4613677 -28.76386118 115.30192272 -36.1640625 115.01171875 C-40.73050424 115.93759178 -43.65495331 117.54593801 -47.1015625 120.69921875 C-49.57156211 124.66618783 -50.49400846 127.37341494 -50.1640625 132.01171875 C-48.03845147 138.2968505 -44.01410541 142.73016295 -39.3515625 147.28515625 C-38.70082764 147.93497467 -38.05009277 148.58479309 -37.37963867 149.25430298 C-36.01271128 150.61522681 -34.64096497 151.97132615 -33.26464844 153.32275391 C-31.15950491 155.39119688 -29.07099584 157.47538911 -26.984375 159.5625 C-25.64938026 160.88766918 -24.31347403 162.21192087 -22.9765625 163.53515625 C-22.35354248 164.15595062 -21.73052246 164.776745 -21.08862305 165.41635132 C-20.50121338 165.99100128 -19.91380371 166.56565125 -19.30859375 167.15771484 C-18.79659424 167.66209076 -18.28459473 168.16646667 -17.75708008 168.68612671 C-14.59267718 171.31931002 -11.81631976 172.30295485 -7.7265625 172.32421875 C-6.61474609 172.34935547 -6.61474609 172.34935547 -5.48046875 172.375 C-0.02023985 171.51867405 3.67560211 167.46158642 7.4206543 163.68579102 C7.95461823 163.15533173 8.48858215 162.62487244 9.03872681 162.07833862 C10.79258247 160.33324585 12.53906728 158.58098632 14.28515625 156.828125 C15.50604021 155.60858905 16.72722087 154.38935006 17.94868469 153.1703949 C20.50299045 150.61903287 23.05365591 148.06410068 25.60180664 145.5065918 C28.86680788 142.23018444 32.14072184 138.96285374 35.41740704 135.69813633 C37.93888958 133.18388231 40.45558732 130.66488234 42.97086525 128.14442253 C44.17625984 126.93769483 45.383139 125.73244816 46.59152794 124.52871895 C48.27904256 122.84628709 49.96000704 121.15757049 51.6394043 119.46704102 C52.13864914 118.97184464 52.63789398 118.47664825 53.15226746 117.96644592 C56.99737235 114.07402498 58.67422834 111.65576185 59.2109375 106.19921875 C59.07924934 101.49356199 57.59041792 98.808435 54.8359375 95.01171875 C47.79078106 89.44975314 40.24667767 90.42147272 33.50292969 95.91073608 Z " fill="#000000" transform="translate(403.1640625,225.98828125)"/>
<path d="M0 0 C32.34 0 64.68 0 98 0 C98.99 10.56 99.98 21.12 101 32 C103.64274609 48.91357498 107.12398174 65.33374094 111.40893555 81.87109375 C111.58037079 82.53313812 111.75180603 83.1951825 111.92843628 83.87728882 C112.39715502 85.67902444 112.87090015 87.4794503 113.3449707 89.27978516 C114 92 114 92 114 94 C113.40627594 94.11195709 112.81255188 94.22391418 112.20083618 94.33926392 C104.67403525 95.75987014 97.14910653 97.19019539 89.625 98.625 C88.43438965 98.85176422 87.2437793 99.07852844 86.01708984 99.31216431 C71.59099597 102.0662301 57.19689938 104.83747824 42.95947266 108.46142578 C42.06534668 108.68427246 41.1712207 108.90711914 40.25 109.13671875 C39.51265625 109.32967529 38.7753125 109.52263184 38.015625 109.72143555 C35.63835197 110.04998067 34.22047584 109.92000215 32 109 C30.75488281 107.44384766 30.75488281 107.44384766 29.703125 105.4140625 C29.30585205 104.65826904 28.9085791 103.90247559 28.49926758 103.1237793 C28.08700928 102.29918213 27.67475098 101.47458496 27.25 100.625 C26.81389404 99.77010986 26.37778809 98.91521973 25.9284668 98.03442383 C10.75836207 67.85191927 0 34.00100824 0 0 Z " fill="#000000" transform="translate(0,262)"/>
<path d="M0 0 C1.71364746 0.36351563 1.71364746 0.36351563 3.46191406 0.734375 C15.21180684 3.22103195 26.97367513 5.64178015 38.75 8 C39.61254395 8.17297607 40.47508789 8.34595215 41.36376953 8.52416992 C54.87538548 11.22924192 68.40029061 13.77246139 82 16 C81.38488947 21.57646257 80.06757857 26.86962801 78.67651367 32.30004883 C75.63720438 44.23224097 73.09486943 56.14842582 71.1875 68.3125 C70.99317383 69.52349365 70.79884766 70.7344873 70.59863281 71.98217773 C68.79207221 83.99072578 68.01513604 95.81836755 67 108 C34.66 108 2.32 108 -31 108 C-31 96.72403561 -31 96.72403561 -30.30078125 92.0390625 C-30.14633545 91.00088379 -29.99188965 89.96270508 -29.83276367 88.89306641 C-29.66107666 87.81460449 -29.48938965 86.73614258 -29.3125 85.625 C-29.04240112 83.91642822 -29.04240112 83.91642822 -28.7668457 82.17333984 C-23.96176567 52.86666206 -13.42239138 26.32608154 0 0 Z " fill="#000000" transform="translate(31,124)"/>
<path d="M0 0 C34.65 0 69.3 0 105 0 C105 27.06 105 54.12 105 82 C98.338125 82.4125 91.67625 82.825 84.8125 83.25 C67.98348548 84.33059274 51.2400652 85.7629375 34.49145508 87.72949219 C33.76371384 87.81405167 33.0359726 87.89861115 32.28617859 87.98573303 C30.34922969 88.21245275 28.41309936 88.44613643 26.47705078 88.68041992 C22.96381578 89.00332574 19.52591255 89.05559507 16 89 C5.09091601 61.27543447 0 29.65408746 0 0 Z " fill="#000000" transform="translate(127,262)"/>
<path d="M0 0 C8.01644343 0.46053497 15.99920409 1.05829069 23.984375 1.90234375 C25.17202454 2.02701523 25.17202454 2.02701523 26.38366699 2.15420532 C29.62096493 2.49575844 32.85796183 2.83946872 36.09375 3.19506836 C54.05316823 5.15750896 71.91331756 5.96647529 90 7 C90 33.4 90 59.8 90 87 C55.35 87 20.7 87 -15 87 C-15 77.42730349 -14.72846535 68.68074358 -13.375 59.3125 C-13.1989624 58.07081055 -13.0229248 56.82912109 -12.84155273 55.54980469 C-10.04434031 36.68205175 -5.70883661 18.1914741 0 0 Z " fill="#000000" transform="translate(142,145)"/>
<path d="M0 0 C1.36592333 2.29874902 2.54505311 4.52987801 3.6875 6.9375 C4.03490234 7.65695801 4.38230469 8.37641602 4.74023438 9.11767578 C5.47235055 10.6448965 6.19861414 12.17493461 6.91943359 13.70751953 C7.61166625 15.17612881 8.31181019 16.64105075 9.02197266 18.10107422 C21.98738461 44.76171818 31.21306681 77.14520514 31 107 C16.91663987 107.75947324 5.74436704 107.15739082 -7 101 C-8.3484329 100.3894632 -9.69740086 99.78010688 -11.046875 99.171875 C-20.49827138 94.78780035 -28.67633169 89.21667458 -37 83 C-48.1697378 75.00697662 -57.466935 72.26197907 -71 71 C-71.15033691 70.18136475 -71.30067383 69.36272949 -71.45556641 68.51928711 C-74.55323711 51.7747731 -77.91742223 35.25081711 -82.54443359 18.84643555 C-83 17 -83 17 -83 15 C-82.03328369 14.83508057 -81.06656738 14.67016113 -80.07055664 14.50024414 C-75.39913186 13.69943363 -70.73036549 12.88378557 -66.0625 12.0625 C-65.20418579 11.91159912 -64.34587158 11.76069824 -63.46154785 11.60522461 C-47.49077608 8.77889272 -31.66895915 5.40827351 -15.86743164 1.75805664 C-15.02610184 1.56659561 -14.18477203 1.37513458 -13.31794739 1.1778717 C-11.74195159 0.81890683 -10.1674382 0.45334642 -8.59477234 0.08006287 C-3.33749141 -1.11249714 -3.33749141 -1.11249714 0 0 Z " fill="#000000" transform="translate(463,125)"/>
<path d="M0 0 C2.68303144 5.75502306 4.35421654 11.53068972 5.875 17.6875 C6.12967041 18.71464111 6.38434082 19.74178223 6.64672852 20.80004883 C8.67602289 29.21378161 10.3802153 37.67460265 11.9375 46.1875 C12.16099121 47.38656982 12.38448242 48.58563965 12.61474609 49.82104492 C12.91179443 51.50870972 12.91179443 51.50870972 13.21484375 53.23046875 C13.39136475 54.22457764 13.56788574 55.21868652 13.74975586 56.24291992 C14.00941486 59.10372881 13.78159768 61.24453701 13 64 C4.60127331 73.41528727 -11.482064 79.57805175 -23 84 C-23.60345245 84.25583862 -24.20690491 84.51167725 -24.8286438 84.77526855 C-31.71854924 87.44192955 -38.2514054 87.38603989 -45.56640625 87.29296875 C-46.69751831 87.28994751 -47.82863037 87.28692627 -48.99401855 87.28381348 C-53.18360637 87.26822209 -57.3730632 87.22633882 -61.5625 87.1875 C-70.946875 87.125625 -80.33125 87.06375 -90 87 C-90 60.6 -90 34.2 -90 7 C-79.23375 6.38125 -79.23375 6.38125 -68.25 5.75 C-51.06608628 4.72014015 -33.98480111 3.3483858 -16.89550781 1.27050781 C-16.19618134 1.18594833 -15.49685486 1.10138885 -14.77633667 1.01426697 C-12.92493801 0.78804321 -11.07448052 0.5541524 -9.22412109 0.31958008 C-6.12421164 0.01231206 -3.11258605 -0.05809925 0 0 Z " fill="#000000" transform="translate(351,145)"/>
<path d="M0 0 C4.24648174 1.6985927 5.69437323 2.31596738 8.671875 5.30859375 C9.33147217 5.96722412 9.99106934 6.62585449 10.6706543 7.30444336 C11.35683838 8.00835205 12.04302246 8.71226074 12.75 9.4375 C13.46518799 10.16396729 14.18037598 10.89043457 14.91723633 11.63891602 C20.30653812 17.16780213 25.30002696 22.87136503 30 29 C31.01356488 30.28575417 32.02795096 31.57086124 33.04296875 32.85546875 C51.17898504 55.97754411 75.00044662 87.66145976 80 117 C65.76975465 119.14137097 51.52798004 120.55924606 37.1875 121.6875 C36.37231903 121.75393707 35.55713806 121.82037415 34.71725464 121.88882446 C32.30554486 122.08369573 29.89323758 122.2679757 27.48046875 122.44921875 C26.79317688 122.50532318 26.10588501 122.56142761 25.39776611 122.61923218 C16.90360253 123.2266852 8.58030092 123 0 123 C0 82.41 0 41.82 0 0 Z " fill="#000000" transform="translate(261,0)"/>
<path d="M0 0 C0 40.59 0 81.18 0 123 C-20.72931076 123 -20.72931076 123 -27.26171875 122.44921875 C-28.01853439 122.39069733 -28.77535004 122.3321759 -29.55509949 122.2718811 C-31.93328668 122.08503739 -34.31035198 121.8870933 -36.6875 121.6875 C-37.5051886 121.62130463 -38.3228772 121.55510925 -39.16534424 121.48690796 C-52.50598899 120.40598517 -65.75862536 118.97360869 -79 117 C-78.4700812 110.7469582 -75.73898346 105.48388579 -73.125 99.875 C-72.63249756 98.8125708 -72.13999512 97.7501416 -71.63256836 96.65551758 C-60.60618317 73.17336848 -47.24111281 51.23116199 -31 31 C-30.55366211 30.43651855 -30.10732422 29.87303711 -29.64746094 29.29248047 C-23.69688732 21.81454757 -17.1651605 14.97085415 -10.4375 8.1875 C-9.23927612 6.97525757 -9.23927612 6.97525757 -8.0168457 5.73852539 C-7.26749756 4.9933667 -6.51814941 4.24820801 -5.74609375 3.48046875 C-4.73567017 2.47342896 -4.73567017 2.47342896 -3.70483398 1.44604492 C-2 0 -2 0 0 0 Z " fill="#000000" transform="translate(232,0)"/>
<path d="M0 0 C0 39.93 0 79.86 0 121 C-9.81318665 113.64011001 -18.18015138 105.42227661 -26 96 C-26.8353125 95.01515625 -27.670625 94.0303125 -28.53125 93.015625 C-48.04740456 69.6070052 -72.51261132 36.34710606 -79 6 C-45.73275548 1.9921794 -45.73275548 1.9921794 -29.375 0.75 C-28.36719482 0.67023926 -27.35938965 0.59047852 -26.32104492 0.50830078 C-17.49309504 -0.11695518 -8.91968731 0 0 0 Z " fill="#000000" transform="translate(232,373)"/>
<path d="M0 0 C-1.38323675 3.28618674 -3.39750853 5.7974975 -5.67919922 8.51318359 C-29.46228086 36.88503722 -46.0181471 70.9738354 -60 105 C-78.40522839 102.07329893 -96.75292308 98.98966004 -115 95.1875 C-115.73232849 95.03497772 -116.46465698 94.88245544 -117.21917725 94.72531128 C-129.61829014 92.13378088 -129.61829014 92.13378088 -134 91 C-129.26308139 80.65850937 -119.76763435 72.17435853 -112 64 C-111.21367188 63.17113281 -110.42734375 62.34226563 -109.6171875 61.48828125 C-104.11622486 55.83944327 -98.18615104 50.87945069 -92 46 C-90.55367187 44.82824219 -90.55367187 44.82824219 -89.078125 43.6328125 C-66.85277767 25.97663556 -29.47599337 0 0 0 Z " fill="#000000" transform="translate(183,8)"/>
<path d="M0 0 C34.80025792 7.0481535 68.3224741 25.93549336 95 49 C95.74636719 49.63550781 96.49273437 50.27101562 97.26171875 50.92578125 C110.1879596 62.22801221 123.63085915 74.49901819 133 89 C133 89.66 133 90.32 133 91 C108.81506867 96.62085999 84.50079574 101.00043249 60 105 C57.73733612 100.5442678 55.54253753 96.09078601 53.58984375 91.48828125 C40.05484203 59.93899504 23.48339708 30.10399323 1.29296875 3.75 C0 2 0 2 0 0 Z " fill="#000000" transform="translate(311,8)"/>
<path d="M0 0 C2.50088458 5.48398761 4.99140563 10.97179275 7.4375 16.48046875 C19.50068825 43.47141112 33.780874 68.66799674 52 92 C52.69351563 92.8971875 53.38703125 93.794375 54.1015625 94.71875 C55.72771437 96.81784644 57.35997591 98.91173782 59 101 C55.49800709 102.16733097 54.58531363 101.78839721 51.16015625 100.6640625 C50.18941162 100.34630859 49.21866699 100.02855469 48.21850586 99.70117188 C47.17702393 99.34603516 46.13554199 98.99089844 45.0625 98.625 C43.98943604 98.26212891 42.91637207 97.89925781 41.81079102 97.52539062 C-1.3463317 82.5963246 -41.97590028 55.33427648 -70 19 C-70.86238281 17.91912109 -70.86238281 17.91912109 -71.7421875 16.81640625 C-73 15 -73 15 -73 13 C-35.55561071 5.17819243 -35.55561071 5.17819243 -17.9375 2 C-16.80538086 1.79286377 -15.67326172 1.58572754 -14.50683594 1.37231445 C-13.46172852 1.18757568 -12.41662109 1.00283691 -11.33984375 0.8125 C-10.44644287 0.65394531 -9.55304199 0.49539063 -8.63256836 0.33203125 C-5.7316035 -0.03385136 -2.92092527 -0.05563158 0 0 Z " fill="#000000" transform="translate(124,384)"/>
<path d="M0 0 C3.20940705 3.20940705 3.92542714 5.04822743 5.4375 9.25 C11.96824543 26.3757807 21.14499116 42.27736006 32 57 C25.70922278 66.84832021 17.12069783 74.97037878 8.9375 83.25 C8.28225342 83.91829834 7.62700684 84.58659668 6.9519043 85.27514648 C6.33742432 85.89075439 5.72294434 86.5063623 5.08984375 87.140625 C4.54191162 87.69266602 3.99397949 88.24470703 3.42944336 88.81347656 C2 90 2 90 0 90 C0 60.3 0 30.6 0 0 Z " fill="#000000" transform="translate(261,404)"/>
</svg>
