<?xml version="1.0" encoding="UTF-8"?>
<svg version="1.1" xmlns="http://www.w3.org/2000/svg" width="512" height="512">
<path d="M0 0 C4.10370242 0.00912864 8.20733908 -0.00495757 12.311028 -0.01591969 C20.33006082 -0.0336269 28.34894316 -0.02989991 36.36798167 -0.01826912 C42.89016763 -0.00920419 49.41231167 -0.00802397 55.93450212 -0.01236439 C56.86578682 -0.01297732 57.79707151 -0.01359025 58.75657696 -0.01422176 C60.64896672 -0.01550077 62.54135648 -0.01679762 64.43374622 -0.01811212 C82.14327876 -0.02949508 99.85272824 -0.01644017 117.56224716 0.00508934 C132.72975954 0.02295824 147.89714942 0.01985349 163.0646596 0.0014143 C180.71450517 -0.02003289 198.3642781 -0.02839665 216.01413488 -0.01613665 C217.89923206 -0.01486256 219.78432924 -0.01360508 221.66942644 -0.01236439 C223.06037355 -0.01143873 223.06037355 -0.01143873 224.4794206 -0.01049438 C230.98733348 -0.00705301 237.49519995 -0.01284355 244.00310564 -0.0222826 C251.94331001 -0.03354684 259.88335637 -0.03037011 267.82354283 -0.00915962 C271.86815673 0.00129163 275.91250802 0.00557501 279.95711946 -0.00775623 C316.61426762 -0.1186018 316.61426762 -0.1186018 332.11446428 8.27289867 C332.77269182 8.61723949 333.43091936 8.96158031 334.10909319 9.31635571 C354.60698195 20.31290545 368.2228407 37.10568102 375.98946428 58.84711742 C382.48013971 80.41509098 380.2983778 103.96215449 370.00264788 123.86371899 C358.49605819 145.06699125 340.55732296 159.63450863 317.48726702 166.62726879 C304.59224632 170.01353407 290.83974986 169.08942327 277.60392857 169.04579735 C273.50022615 169.03666871 269.39658949 169.05075492 265.29290056 169.06171703 C257.27386774 169.07942425 249.2549854 169.07569726 241.23594689 169.06406647 C234.71376094 169.05500154 228.1916169 169.05382132 221.66942644 169.05816174 C220.2724994 169.05908113 220.2724994 169.05908113 218.84735161 169.06001911 C216.95496184 169.06129812 215.06257209 169.06259497 213.17018235 169.06390947 C195.4606498 169.07529243 177.75120033 169.06223752 160.04168141 169.04070801 C144.87416903 169.02283911 129.70677914 169.02594386 114.53926897 169.04438305 C96.8894234 169.06583023 79.23965047 169.074194 61.58979368 169.06193399 C59.70469651 169.06065991 57.81959932 169.05940243 55.93450212 169.05816174 C54.54355502 169.05723608 54.54355502 169.05723608 53.12450796 169.05629173 C46.61659508 169.05285036 40.10872861 169.0586409 33.60082293 169.06807995 C25.66061856 169.07934419 17.72057219 169.07616745 9.78038573 169.05495697 C5.73577184 169.04450572 1.69142055 169.04022234 -2.3531909 169.05355358 C-39.01033905 169.16439915 -39.01033905 169.16439915 -54.51053572 160.77289867 C-55.16876326 160.42855785 -55.8269908 160.08421703 -56.50516462 159.72944164 C-77.00305338 148.7328919 -90.61891214 131.94011633 -98.38553572 110.19867992 C-104.87621115 88.63070636 -102.69444923 65.08364286 -92.39871931 45.18207836 C-80.89212963 23.9788061 -62.9533944 9.41128871 -39.88333845 2.41852856 C-26.98831776 -0.96773672 -13.23582129 -0.04362592 0 0 Z M156.80196428 107.52289867 C155.38154608 110.36373509 155.48744156 112.37767145 155.80196428 115.52289867 C158.03402859 118.37070486 159.35189427 119.37287534 162.80196428 120.52289867 C167.32234362 120.75174353 171.84512463 120.75120437 176.3705678 120.76313305 C178.5961299 120.77281888 180.8207602 120.80384399 183.04610491 120.83539867 C184.47122966 120.84193139 185.89636099 120.84718081 187.32149553 120.85102367 C189.25666033 120.86504223 189.25666033 120.86504223 191.23091936 120.87934399 C195.09732449 120.49341717 197.51227377 119.55694195 200.80196428 117.52289867 C202.22238249 114.68206226 202.11648701 112.6681259 201.80196428 109.52289867 C199.56989997 106.67509249 198.2520343 105.67292201 194.80196428 104.52289867 C190.28158495 104.29405382 185.75880394 104.29459298 181.23336077 104.2826643 C179.00779866 104.27297847 176.78316837 104.24195336 174.55782366 104.21039867 C173.13269891 104.20386595 171.70756758 104.19861654 170.28243303 104.19477367 C168.34726824 104.18075512 168.34726824 104.18075512 166.3730092 104.16645336 C162.50660408 104.55238017 160.09165479 105.48885539 156.80196428 107.52289867 Z M221.42696428 107.14789867 C219.31489922 110.23476299 219.19001283 111.85118998 219.80196428 115.52289867 C221.30196428 118.02289867 221.30196428 118.02289867 223.80196428 119.52289867 C227.47367298 120.13485012 229.09009997 120.00996373 232.17696428 117.89789867 C234.28902934 114.81103436 234.41391573 113.19460737 233.80196428 109.52289867 C232.30196428 107.02289867 232.30196428 107.02289867 229.80196428 105.52289867 C226.13025559 104.91094722 224.5138286 105.03583362 221.42696428 107.14789867 Z M253.42696428 107.14789867 C251.31489922 110.23476299 251.19001283 111.85118998 251.80196428 115.52289867 C253.30196428 118.02289867 253.30196428 118.02289867 255.80196428 119.52289867 C259.47367298 120.13485012 261.09009997 120.00996373 264.17696428 117.89789867 C266.28902934 114.81103436 266.41391573 113.19460737 265.80196428 109.52289867 C264.30196428 107.02289867 264.30196428 107.02289867 261.80196428 105.52289867 C258.13025559 104.91094722 256.5138286 105.03583362 253.42696428 107.14789867 Z M285.42696428 107.14789867 C283.31489922 110.23476299 283.19001283 111.85118998 283.80196428 115.52289867 C285.30196428 118.02289867 285.30196428 118.02289867 287.80196428 119.52289867 C291.47367298 120.13485012 293.09009997 120.00996373 296.17696428 117.89789867 C298.28902934 114.81103436 298.41391573 113.19460737 297.80196428 109.52289867 C296.30196428 107.02289867 296.30196428 107.02289867 293.80196428 105.52289867 C290.13025559 104.91094722 288.5138286 105.03583362 285.42696428 107.14789867 Z " fill="#000000" transform="translate(117.1980357170105,295.47710132598877)"/>
<path d="M0 0 C5.89945599 3.39194422 9.37536233 8.68858699 11.5 15.0625 C12.36549474 25.51425136 10.46634125 34.8526102 7.6796875 44.828125 C7.26803015 46.35265627 6.85796682 47.8776187 6.44935608 49.40296936 C5.34261599 53.51758907 4.21468394 57.62612321 3.0829277 61.73392105 C1.88016889 66.11488896 0.69794398 70.50139129 -0.48608398 74.88745117 C-2.47656897 82.25282459 -4.47757063 89.61526512 -6.48486328 96.97607422 C-9.38396022 107.61257596 -12.24323759 118.25950246 -15.08984375 128.91015625 C-15.54799193 130.62372153 -16.00615233 132.33728354 -16.46432495 134.05084229 C-17.14893877 136.61137957 -17.8335374 139.17192089 -18.51803017 141.73249054 C-29.42676752 182.53204133 -40.4648317 223.29700844 -51.5 264.0625 C-76.745 263.0725 -76.745 263.0725 -102.5 262.0625 C-95.54220368 235.42568949 -88.52443382 208.80737892 -81.39826965 182.21524811 C-80.42092 178.56756503 -79.44432861 174.9196791 -78.46771431 171.27179909 C-75.91415073 161.73371645 -73.35897812 152.19606562 -70.80313301 142.65859413 C-69.02677881 136.0294978 -67.25157799 129.40009343 -65.47705078 122.77050781 C-63.03402612 113.6434391 -60.58951852 104.51676865 -58.14395142 95.39038086 C-57.23488336 91.99777872 -56.32634017 88.60503679 -55.41830444 85.2121582 C-53.10744647 76.57905444 -50.78926735 67.94800537 -48.45643139 59.32081223 C-47.06127805 54.15695826 -45.68084103 48.98933664 -44.30643082 43.81992531 C-43.32127784 40.12379352 -42.32669251 36.43024095 -41.33010101 32.7371788 C-40.85470655 30.96779419 -40.38314811 29.19737385 -39.91568756 27.42587662 C-39.26623869 24.96706096 -38.60298623 22.51235552 -37.93652344 20.05810547 C-37.65543102 18.97386354 -37.65543102 18.97386354 -37.36865997 17.86771774 C-35.68604266 11.76766723 -32.9227618 6.8982628 -28.0625 2.8125 C-27.50691406 2.33296875 -26.95132813 1.8534375 -26.37890625 1.359375 C-18.87045909 -3.82317065 -8.16345892 -3.59241743 0 0 Z " fill="#000000" transform="translate(484.5,17.9375)"/>
<path d="M0 0 C7.22071064 7.41072934 9.23641865 18.22454546 11.76171875 27.94140625 C12.17521629 29.49862197 12.58972138 31.05557043 13.00514221 32.61227417 C13.8988542 35.96944698 14.78576304 39.3283154 15.6673584 42.68869019 C17.08802225 48.1033807 18.52382009 53.51398886 19.96191406 58.92407227 C21.76097521 65.69573071 23.55657309 72.46828931 25.34806633 79.24195385 C28.86325037 92.53036973 32.41102358 105.80990216 35.97265625 119.0859375 C36.24720957 120.10936438 36.52176289 121.13279125 36.804636 122.18723106 C37.91435339 126.32335336 39.02427506 130.45942074 40.13452244 134.59540081 C42.06556909 141.78909884 43.99452028 148.9833559 45.92211914 156.17797852 C50.72492009 174.10334403 55.53069689 192.02789126 60.35256958 209.94813728 C61.01159648 212.3973993 61.67048882 214.84669749 62.3293457 217.29600525 C64.13201796 223.99705276 65.93514913 230.69797375 67.74143791 237.39804745 C68.28034518 239.39768822 68.818715 241.39747274 69.35684204 243.39732361 C70.00165482 245.79347719 70.64740939 248.1893776 71.29428101 250.5849762 C71.57180206 251.61718796 71.84932312 252.64939972 72.13525391 253.71289062 C72.37660065 254.60834595 72.61794739 255.50380127 72.86660767 256.4263916 C73.375 258.4375 73.375 258.4375 73.375 259.4375 C72.50512451 259.46255615 71.63524902 259.4876123 70.73901367 259.51342773 C67.40822802 259.61045372 64.07751436 259.70951723 60.74682617 259.80981445 C59.32464855 259.85225565 57.9024487 259.89396032 56.48022461 259.93481445 C48.08765687 260.17647744 39.70550872 260.50337647 31.3215332 260.95727539 C30.45527565 261.00354317 29.5890181 261.04981094 28.69651031 261.09748077 C26.58930305 261.2101275 24.48214605 261.3237139 22.375 261.4375 C0.8783931 181.55024993 0.8783931 181.55024993 -8.87890625 145.08203125 C-9.12663033 144.15627792 -9.3743544 143.2305246 -9.62958527 142.27671814 C-12.29381283 132.31970321 -14.95421892 122.36168379 -17.60791016 112.40185547 C-18.53385794 108.92797404 -19.46015437 105.45418577 -20.38671875 101.98046875 C-20.6106002 101.14099197 -20.83448166 100.3015152 -21.0651474 99.43659973 C-23.93960525 88.66478699 -26.85778824 77.90617814 -29.82920074 67.1607151 C-31.08388861 62.61666453 -32.32744375 58.06954554 -33.57342529 53.52310181 C-34.523841 50.07764692 -35.49304878 46.63788615 -36.46337891 43.19799805 C-43.34090921 18.36628152 -43.34090921 18.36628152 -39.0625 7.9375 C-35.81006102 2.58929928 -30.65111163 -1.85970191 -24.7734375 -4.09375 C-15.4492054 -6.12812791 -8.00357527 -4.7640329 0 0 Z " fill="#000000" transform="translate(56.625,20.5625)"/>
<path d="M0 0 C0.86415527 0.19335938 1.72831055 0.38671875 2.61865234 0.5859375 C34.07994148 7.86048357 61.57072762 22.90037321 85 45 C85.56589844 45.45632812 86.13179687 45.91265625 86.71484375 46.3828125 C88.67379962 48.02160661 89.87057513 49.42166905 90.43359375 51.9375 C90.63533589 55.26318862 90.22098118 57.6156849 88.5625 60.5 C84.68336375 62.7707139 81.36754403 63.08062945 77 62 C75.07035924 60.60992704 73.68533055 59.0424565 72.1171875 57.25390625 C54.11756151 38.09194279 27.07805076 25.39859834 2 19 C1.20174805 18.79117188 0.40349609 18.58234375 -0.41894531 18.3671875 C-40.26743602 8.38532221 -83.52320163 16.16224297 -118.71972656 36.62402344 C-129.55980465 43.16520974 -141.14397957 51.28275533 -149.5859375 60.78515625 C-152.07398487 62.92267761 -154.69576423 62.52657685 -157.8359375 62.4140625 C-160 62 -160 62 -162.5625 59.875 C-164.33033071 56.33933859 -164.84034017 54.89612263 -164 51 C-162.00300321 47.98855437 -159.56997346 45.52814749 -157 43 C-156.29746094 42.29875 -155.59492188 41.5975 -154.87109375 40.875 C-115.13281015 3.22112722 -53.05909577 -12.09523885 0 0 Z " fill="#000000" transform="translate(293,67)"/>
<path d="M0 0 C0.78632813 0.70125 1.57265625 1.4025 2.3828125 2.125 C3.46949219 3.053125 3.46949219 3.053125 4.578125 4 C7.79381806 6.91625605 9.2181106 8.55338752 10.4453125 12.8125 C10.38449572 16.03578946 10.27900163 17.56514467 8.3828125 20.125 C5.36053961 22.13984859 3.38750399 22.9053143 -0.25 22.83203125 C-4.68997507 21.50590008 -7.5843038 17.96084584 -10.83203125 14.7890625 C-14.77123019 11.02113308 -19.03731206 8.05778822 -23.6171875 5.125 C-24.96876953 4.24714844 -24.96876953 4.24714844 -26.34765625 3.3515625 C-38.52394161 -4.17440065 -51.55202998 -8.43994689 -65.6171875 -10.875 C-66.8959375 -11.101875 -68.1746875 -11.32875 -69.4921875 -11.5625 C-99.20290654 -14.52098262 -127.32059008 -5.28458771 -150.6171875 13.125 C-151.64947217 13.99787832 -152.67573042 14.87794229 -153.6953125 15.765625 C-154.63890625 16.58546875 -155.5825 17.4053125 -156.5546875 18.25 C-157.36808594 18.99507812 -158.18148437 19.74015625 -159.01953125 20.5078125 C-162.41360306 22.6208136 -164.68876696 22.52567126 -168.6171875 22.125 C-171.77319006 20.04868253 -172.50879155 18.42166261 -173.8046875 14.875 C-173.46997327 8.18071533 -168.70467899 5.05335537 -164.00390625 0.7109375 C-118.02158457 -39.48470499 -46.34791921 -39.84537532 0 0 Z " fill="#000000" transform="translate(337.6171875,142.875)"/>
<path d="M0 0 C5.30123244 3.7505318 9.34621732 8.38107238 11.296875 14.625 C12.10126098 22.45373334 12.4500441 30.27215132 7.296875 36.625 C4.48906361 39.55444943 1.63798729 42.31144895 -1.703125 44.625 C-2.693125 44.625 -3.683125 44.625 -4.703125 44.625 C-4.703125 50.565 -4.703125 56.505 -4.703125 62.625 C-10.313125 62.625 -15.923125 62.625 -21.703125 62.625 C-21.703125 59.923125 -21.703125 57.22125 -21.703125 54.4375 C-21.77534204 48.61674299 -21.77534204 48.61674299 -24.33984375 43.62890625 C-26.37594277 42.46186312 -26.37594277 42.46186312 -28.56640625 41.58203125 C-33.12160821 39.54176712 -35.86419379 35.26472918 -38.078125 30.9375 C-39.66331508 22.53599259 -39.55884954 15.35689294 -35.25 7.81640625 C-26.96441117 -3.92151126 -12.5274906 -7.02177817 0 0 Z " fill="#000000" transform="translate(269.703125,217.375)"/>
<path d="M0 0 C2.17899978 1.65043053 4.24824943 3.36858544 6.3046875 5.16796875 C7.3153125 5.97234375 8.3259375 6.77671875 9.3671875 7.60546875 C11.36074371 10.24210761 11.68042753 11.0672218 11.8671875 14.23046875 C11.3046875 18.16796875 11.3046875 18.16796875 9.6796875 20.60546875 C6.7387743 22.54028007 4.82818294 23.09606068 1.3046875 23.16796875 C-1.25048541 22.02486508 -3.23936398 20.52555534 -5.43359375 18.8046875 C-19.70552891 7.73607246 -36.07837251 3.45034948 -54.01953125 5.55859375 C-64.94580937 7.50215063 -76.51243904 12.01284268 -84.8203125 19.60546875 C-87.97479947 22.4170767 -89.49048728 23.25937799 -93.6953125 23.16796875 C-97.22437317 21.56385027 -98.52304158 20.42637513 -100.6953125 17.16796875 C-101.3451302 14.06328421 -101.22933775 12.08843409 -99.62109375 9.31640625 C-76.73348576 -19.62459932 -28.3901971 -19.29710498 0 0 Z " fill="#000000" transform="translate(300.6953125,176.83203125)"/>
<path d="M0 0 C0.37730162 6.16259312 -0.03564567 10.52734586 -3 16 C-5.56685154 17.28342577 -7.43001066 17.14808107 -10.30419922 17.17700195 C-11.96634964 17.19625481 -11.96634964 17.19625481 -13.66207886 17.21589661 C-14.86413971 17.22328354 -16.06620056 17.23067047 -17.3046875 17.23828125 C-18.53534943 17.246353 -19.76601135 17.25442474 -21.03396606 17.26274109 C-23.64160753 17.27659032 -26.24926719 17.2873087 -28.85693359 17.29516602 C-31.53229481 17.30403561 -34.20713822 17.32492948 -36.88232422 17.35668945 C-40.73160586 17.3991954 -44.58020082 17.41551205 -48.4296875 17.42578125 C-49.62769989 17.44328934 -50.82571228 17.46079742 -52.06002808 17.47883606 C-53.17443268 17.47591049 -54.28883728 17.47298492 -55.43701172 17.4699707 C-56.41693085 17.47583694 -57.39684998 17.48170319 -58.40646362 17.48774719 C-61.84090078 16.84185801 -62.9919568 15.84272858 -65 13 C-65.390625 9.984375 -65.390625 9.984375 -65.25 6.75 C-65.21390625 5.67234375 -65.1778125 4.5946875 -65.140625 3.484375 C-65.09421875 2.66453125 -65.0478125 1.8446875 -65 1 C-57.26333333 0.86912238 -49.52665915 0.73869822 -41.78997517 0.60884857 C-38.19730062 0.54853629 -34.60462882 0.48806943 -31.01196289 0.42724609 C-27.54308357 0.36852419 -24.07419758 0.31021253 -20.60530663 0.25218201 C-18.6416769 0.21922656 -16.67805426 0.18584929 -14.71443176 0.15246582 C-13.5135643 0.13244507 -12.31269684 0.11242432 -11.07543945 0.09179688 C-10.02064896 0.07403198 -8.96585846 0.05626709 -7.87910461 0.03796387 C-5.25228437 0.00332662 -2.62700307 -0.00710844 0 0 Z " fill="#000000" transform="translate(417,479)"/>
<path d="M0 0 C21.45 0.33 42.9 0.66 65 1 C65 10.34615385 65 10.34615385 62 16 C59.43314846 17.28342577 57.56998934 17.14808107 54.69580078 17.17700195 C53.03365036 17.19625481 53.03365036 17.19625481 51.33792114 17.21589661 C50.13586029 17.22328354 48.93379944 17.23067047 47.6953125 17.23828125 C46.46465057 17.246353 45.23398865 17.25442474 43.96603394 17.26274109 C41.35839247 17.27659032 38.75073281 17.2873087 36.14306641 17.29516602 C33.46770519 17.30403561 30.79286178 17.32492948 28.11767578 17.35668945 C24.26839414 17.3991954 20.41979918 17.41551205 16.5703125 17.42578125 C15.37230011 17.44328934 14.17428772 17.46079742 12.93997192 17.47883606 C11.82556732 17.47591049 10.71116272 17.47298492 9.56298828 17.4699707 C8.58306915 17.47583694 7.60315002 17.48170319 6.59353638 17.48774719 C4 17 4 17 0 13 C0 8.71 0 4.42 0 0 Z " fill="#000000" transform="translate(96,479)"/>
</svg>
